<?xml version="1.0" encoding="UTF-8" standalone="no"?>
<!-- Created with Inkscape (http://www.inkscape.org/) -->

<svg
   width="261.37558mm"
   height="331.96628mm"
   viewBox="0 0 987.87622 1254.6757"
   version="1.1"
   id="svg1"
   xml:space="preserve"
   inkscape:version="1.3.2 (091e20e, 2023-11-25, custom)"
   sodipodi:docname="main-hero.svg"
   xmlns:inkscape="http://www.inkscape.org/namespaces/inkscape"
   xmlns:sodipodi="http://sodipodi.sourceforge.net/DTD/sodipodi-0.dtd"
   xmlns:xlink="http://www.w3.org/1999/xlink"
   xmlns="http://www.w3.org/2000/svg"
   xmlns:svg="http://www.w3.org/2000/svg"><sodipodi:namedview
     id="namedview1"
     pagecolor="#ffffff"
     bordercolor="#000000"
     borderopacity="0.25"
     inkscape:showpageshadow="2"
     inkscape:pageopacity="0.0"
     inkscape:pagecheckerboard="false"
     inkscape:deskcolor="#d1d1d1"
     inkscape:document-units="mm"
     inkscape:zoom="0.34611404"
     inkscape:cx="-150.2395"
     inkscape:cy="582.17806"
     inkscape:window-width="1920"
     inkscape:window-height="991"
     inkscape:window-x="-9"
     inkscape:window-y="-9"
     inkscape:window-maximized="1"
     inkscape:current-layer="svg1" /><defs
     id="defs1" /><image
     width="3126.4373"
     height="2880"
     preserveAspectRatio="xMidYMid"
     xlink:href="bOX91cc2-mainhero.png"
     id="image1"
     x="-2003.2858"
     y="-992.07483"
     transform="translate(713.53431,217.25227)"
     style="display:none" /><path
     style="fill:#a31a1d;stroke:#a31a1d;stroke-width:1.53826774;stroke-opacity:1;stroke-dasharray:none"
     d="m -444.04194,40.482856 c -1.56266,8.43412 -4.7813,20.90636 -3.81208,29.366582 0.9084,7.929613 9.27398,6.561377 13.40877,2.299597 2.82944,-2.916342 4.67356,-6.650707 7.50101,-9.638858 0,6.881259 -0.23733,13.759921 1.92115,20.395684 1.11393,3.424633 5.15976,8.944712 4.16192,12.583662 -2.77418,10.117067 -13.98412,21.401327 -19.31721,30.655157 -10.67334,18.52023 -19.54321,37.94163 -27.12911,57.92373 -23.94704,63.07961 -40.47357,125.57113 -41.86856,193.35099 -3.54423,-1.29234 -6.74121,-3.65798 -10.58429,-3.9903 -17.91586,-1.54919 -29.36859,11.753 -30.09253,28.4651 -0.23673,5.46549 4.91816,17.4626 3.0312,21.71822 -1.86171,4.19843 -9.48835,7.20799 -12.56507,10.91805 -4.79322,5.77982 -6.89168,14.33762 -9.76634,21.20831 -12.60214,30.12038 -23.95817,59.89856 -39.21682,88.92514 -4.61592,8.78089 -9.31831,24.04918 -16.91553,30.50917 -4.00867,3.4086 -17.2924,-0.011 -22.3006,-0.66973 -15.52759,-2.04296 -34.12862,-1.74858 -49.66476,0.11321 -4.82493,0.5782 -13.09957,0.11648 -16.28353,4.31205 14.42619,-0.62062 28.59129,-3.4336 43.15135,-3.26012 21.22643,0.25296 42.49887,2.93726 63.50576,5.55783 62.20398,7.75951 125.04683,18.97822 182.3755,46.07908 51.48324,24.33757 96.87268,64.03624 150.62263,83.22252 26.7577,9.55131 56.48567,12.36707 84.67434,9.67719 19.59291,-1.86958 35.04199,-6.37047 52.10729,-16.45498 l -2.44253,-0.81582 v -2.44749 c 5.66644,-1.5936 10.23107,-7.41992 14.65518,-11.19998 11.13925,-9.51755 24.7141,-23.80319 39.080455,-27.9597 -1.362394,7.08192 -6.514007,13.83729 -9.518867,20.39568 -10.957788,23.91611 -26.788108,48.80371 -48.287648,64.6493 -15.05073,11.09253 -32.77815,17.62951 -48.03641,28.38453 -29.22269,20.59818 -39.99979,58.01846 -70.83334,76.28928 -10.57237,6.26484 -23.13108,8.38827 -35.00958,10.81219 -11.33745,2.31362 -22.53078,4.99323 -34.19541,4.99323 -39.80758,0 -77.13337,-19.05334 -113.98469,-31.91987 -20.93592,-7.30967 -42.83381,-12.29711 -64.31994,-17.6782 -24.6017,-6.16131 -49.61804,-10.53245 -74.90422,-12.26765 -25.73998,-1.76622 -51.70149,0.91735 -77.34676,1.54677 -12.42285,0.3049 -25.11324,0.70865 -37.45211,2.22715 -4.10616,0.50533 -10.59373,-0.26562 -13.02682,3.49556 10.84081,-0.01 21.71909,-2.00357 32.56705,-2.47955 4.05757,-0.17805 9.15303,-1.98282 12.99164,0.0551 3.74847,1.98962 5.75271,7.13906 7.91755,10.58303 5.56635,8.85525 10.88663,17.8401 16.07183,26.92232 11.52529,20.1874 21.8308,44.82706 20.7935,68.52944 -0.92946,21.23819 -9.34365,42.65727 -12.73035,63.63452 -2.771,17.16378 0.33672,32.01772 -5.9637,48.94952 11.35673,-9.931 4.37838,-24.828 8.22664,-36.71216 2.66158,-8.21975 11.66194,-14.75187 16.19865,-22.0273 l -16.28353,13.86913 19.8537,-82.39857 0.50071,-30.18559 h -0.81417 l -4.07089,41.6072 h -2.44253 c 0,-24.26987 -11.20307,-48.85032 -23.44841,-69.34529 -6.13525,-10.26847 -17.44328,-23.33875 -19.70293,-35.08059 38.05121,0 76.16862,-4.27725 113.98469,2.82271 21.57378,4.05045 43.19846,8.62562 64.31993,14.65835 14.27751,4.07798 30.06271,11.22668 44.7797,12.70452 -0.92976,5.2425 -4.45332,18.25312 -9.17956,21.18881 -3.5333,2.19474 -15.1526,1.81367 -19.28461,1.26914 -3.60227,-0.47478 -5.89204,-3.5162 -9.80212,-3.64671 -12.32535,-0.4111 -25.07647,2.90044 -37.45211,3.20415 -7.07892,0.17373 -17.70496,-1.42894 -24.27512,1.43332 -3.42308,1.49126 -5.27684,6.06376 -6.86206,9.18439 -4.12127,8.11284 -9.22041,15.93207 -12.44759,24.47483 -1.34361,3.55648 -1.81679,8.26583 2.15043,10.33447 4.82085,2.51359 14.97241,0.0987 20.26575,-0.40613 10.94249,-1.04355 22.38906,-0.15621 33.38123,-0.1384 14.49417,0.023 24.79879,6.54413 39.08047,3.26325 -1.68093,12.49656 -6.81843,25.43318 -10.41971,37.52802 -2.13989,7.18687 -2.82596,15.11744 -5.76582,22.0274 -6.37367,14.9807 -16.33312,24.83745 -16.38152,42.42275 h 0.81417 c 0.68587,-15.95948 10.39963,-27.13771 16.83135,-40.79116 5.29065,-11.23109 6.96661,-25.51698 10.16279,-37.52802 1.73758,-6.52972 3.72174,-22.16362 9.75253,-25.8798 5.38527,-3.3185 16.37108,-6.98293 22.68821,-7.26002 4.83725,-0.21229 9.75878,2.36325 14.61939,1.06327 3.18654,-0.85227 3.36693,-3.76418 5.37623,-5.85999 2.40427,-2.5078 6.83085,-3.19983 10.1289,-3.53152 15.84702,-1.59387 39.08683,7.77195 43.08287,-14.82402 0.62942,-3.55889 0.88027,-6.99661 0.88266,-10.6057 l 39.08046,3.12485 47.22223,-8.83571 c -0.068,24.70988 -12.23451,45.90521 -20.82312,68.52946 -11.61115,30.58611 -20.42239,61.67655 -26.39911,93.82016 h 0.81418 c 8.13659,-25.78224 12.50007,-52.67434 21.60907,-78.31936 10.20622,-28.73381 25.61316,-54.73604 25.61316,-85.66182 17.45748,-2.62218 25.61873,-19.13632 39.89464,-26.1065 l -3.18395,49.76538 -2.04976,29.36984 -24.07664,62.81868 h 0.81418 c 4.43245,-11.51422 9.12052,-22.86884 13.85034,-34.26477 1.79751,-4.33084 3.32826,-10.73115 8.13242,-12.23736 l 3.23285,15.50062 -3.23225,30.18567 4.88446,41.60722 h 0.81417 c -1.42341,-18.06275 -3.46919,-35.6535 -3.25352,-53.84458 0.0757,-6.38168 3.06111,-12.44956 2.76653,-18.76406 -0.31625,-6.78293 -4.48513,-12.79071 -4.35414,-19.57989 0.12682,-6.57102 2.94603,-13.05834 3.79141,-19.5798 0.96544,-7.44725 0.46334,-15.33221 0.97697,-22.84315 1.13261,-16.56408 -1.68083,-39.23459 4.85982,-54.6605 9.41709,-22.20968 31.87075,-43.86693 52.20528,-55.92312 16.58467,-9.83295 35.35485,-16.68163 48.61822,-31.38223 11.4569,-12.69832 22.78341,-26.45861 30.919012,-41.59526 6.282436,-11.68866 10.004073,-25.43023 18.472421,-35.89317 5.41479,-6.69015 14.60091,-10.08589 21.674266,-14.75231 8.747228,-5.77065 15.173775,-13.01081 19.244458,-22.77893 5.219792,-12.52541 -12.745757,-17.98345 -11.817683,-28.55393 0.336325,-3.83157 4.644741,-7.72735 6.882931,-10.60578 5.241857,-6.74132 11.333868,-13.4445 15.000643,-21.21148 h 0.814176 l -2.580676,80.76687 -4.746911,26.10645 h 0.814176 c 6.586163,-17.41159 19.97833,-33.26107 28.674672,-49.76543 14.8344683,-28.15399 21.155467,-62.14944 42.900694,-85.66182 4.946479,-5.34839 9.675302,-13.1861 16.355682,-16.31656 3.510142,27.2346 15.724576,51.90481 24.425291,77.50356 h 0.814177 c -0.140931,-6.85187 -2.111373,-13.54598 -2.410527,-20.39566 -0.808014,-18.50072 0.536291,-39.6443 3.489072,-57.92373 4.306032,-26.65608 9.517272,-54.89224 17.296286,-80.76687 5.80876,-19.32151 13.13972,-38.09091 17.21657,-57.92371 7.5693,-36.82336 9.18831,-75.1248 9.18831,-112.58411 4.83854,2.80111 6.71298,11.3161 8.83409,16.31653 6.32239,14.90536 11.94907,30.12973 18.66006,44.87048 21.05747,46.25246 47.44506,93.70209 56.0116,144.40138 2.95636,17.49626 1.10617,34.66257 0.35441,52.21292 h 0.81418 C 220.77143,476.33749 209.8206,419.20291 195.24473,373.34053 173.86545,306.07109 145.16911,240.85662 115.86015,176.72626 105.08305,153.14486 88.314106,130.75961 79.473458,106.56515 l 61.063232,-1.49005 24.42529,-2.58909 v -0.81583 C 142.49004,101.65522 119.68376,94.151657 98.19952,88.363899 82.949806,84.255686 65.92088,80.21529 52.605638,71.284407 45.915517,66.797068 41.273161,59.910238 35.507934,54.384283 29.269427,48.404612 22.628801,42.789226 15.967701,37.288464 13.692142,35.409232 9.1944933,33.110645 8.7683233,29.877412 8.2954403,26.290146 12.184842,19.389365 13.525172,16.008347 18.259957,4.0656248 23.478558,-7.2070634 30.059949,-18.256381 37.763616,-31.1898 49.168048,-41.004811 57.40582,-53.336939 c 10.728602,-16.060807 17.585891,-35.4818 25.511586,-53.028751 3.27003,-7.23967 6.38779,-14.65799 9.36601,-22.02733 0.9245,-2.28742 3.465224,-6.19468 1.32125,-8.47873 -3.59681,-3.83223 -18.697235,3.54816 -23.087148,4.70199 -26.347431,6.92487 -48.670096,19.85003 -71.64752,34.118727 -27.512841,17.085152 -54.870439,33.969543 -83.04599,49.95497 -12.813141,7.269534 -27.977978,18.824365 -42.337168,22.385439 -6.29992,1.562442 -14.67346,-2.018951 -21.16858,-2.303975 -16.99653,-0.745817 -34.34747,-0.696027 -51.29311,0.922283 -38.34699,3.662159 -72.58693,16.913878 -109.09964,27.59959389 l 15.46935,-8.66876549 35.00959,-13.9024064 17.0977,-3.535292 c 1.48444,-2.11117 2.53337,-1.675076 4.88506,-0.815827 3.27221,-6.004571 19.52831,-8.323194 26.05364,-8.9741 v -0.815828 c -9.03167,0.186636 -20.86187,6.481307 -29.31035,3.26331 -1.55003,2.451668 -2.96768,2.189954 -5.69923,1.631664 -3.75761,6.467558 -21.47012,8.615266 -28.49617,11.172894 -23.94406,8.716258 -44.29708,23.9861244 -67.57664,33.697571 -1.11254,-9.5001225 7.31268,-17.2461923 12.7227,-24.474795 15.38825,-20.560987 32.74754,-36.085706 54.03976,-50.309301 35.02728,-23.398846 70.84706,-46.860542 107.47128,-67.639342 18.7356,-10.62965 39.87377,-19.5639 56.17816,-33.94566 9.60951,-8.47635 16.926365,-19.96275 24.770763,-30.03511 5.709372,-7.33089 14.201574,-14.94142 17.566412,-23.65898 -8.075373,-1.92654 -16.291677,0.42683 -24.425291,0.78376 -22.553044,0.9897 -45.310414,2.57227 -67.576634,6.49006 -39.70461,6.98622 -80.77699,14.05978 -118.86975,27.6424 -39.23511,13.98997 -75.35276,35.84731 -109.09963,59.95703 -16.59878,11.85867 -32.77219,24.39194 -48.85058,36.944444 -7.90423,6.170794 -17.93961,12.10376 -23.39624,20.741936 -4.58094,7.251921 -1.84323,17.980268 -1.84323,26.106473 0,21.480383 -0.43879,43.0176386 0.65456,64.450323 0.34289,6.722405 -0.55756,13.73312 0.40401,20.395675 0.29637,2.053293 0.80235,6.073086 3.23911,6.72938 5.18044,1.395219 10.12602,-10.556763 13.6142,-13.256 M -71.14917,-214.87104 c -3.643917,7.87643 -11.339434,15.2114 -16.772312,22.02733 -7.154654,8.97609 -13.692518,19.89714 -22.320088,27.49325 -17.5654,15.46553 -40.13634,24.93827 -60.23711,36.48503 -37.40162,21.48517 -74.10019,44.96001 -109.91381,69.002093 -19.97078,13.406591 -35.58901,28.919757 -49.96888,48.133204 -6.78792,9.0695995 -14.57974,16.0280264 -11.90852,27.738113 l -15.46936,9.789928 c -5.68263,-30.653464 18.69873,-58.799389 42.33718,-74.786693 55.54925,-37.569362 112.82624,-73.266165 170.97703,-106.670655 12.92982,-7.4275 24.08996,-16.88958 33.84914,-28.21018 5.80836,-6.73754 12.167326,-18.16569 21.514849,-19.57984 v -0.81584 c -23.059519,0.47655 -47.316039,6.44944 -70.019159,10.40181 -41.71143,7.26147 -85.16631,15.62867 -124.56899,31.57494 -31.90891,12.91353 -61.8457,33.61134 -90.37357,52.6592 -17.14183,11.445468 -34.20932,23.00079 -51.29311,34.534094 -6.9695,4.705165 -18.477,10.028558 -22.53874,17.690781 -4.15526,7.838785 -1.88655,20.765228 -1.88655,29.357798 0,22.1948444 1.84282,43.691866 -3.25671,65.26616 h 0.81418 c 4.22463,-11.633403 10.53022,-23.810945 17.14103,-34.2647313 1.42133,-2.24750217 6.29864,-11.0078839 9.58099,-6.254739 2.82944,4.09716303 -0.70963,13.2579819 -1.6541,17.6763123 -3.43351,16.062389 -8.83548,31.835881 -11.22693,48.133788 h 0.81418 c 2.57601,-7.693085 6.47266,-17.391784 11.66612,-23.658379 1.69961,-2.050817 5.21363,-6.47961 8.33517,-4.701657 4.74323,2.701733 1.7498,20.259042 1.83955,25.096736 0.10793,5.816449 -1.3454,12.262787 -0.40709,17.948183 2.50634,15.187116 12.36759,30.985704 18.71224,44.870494 4.66452,10.208 8.32891,23.01346 15.316,31.81407 6.34614,7.99325 15.36847,13.19525 23.51312,19.11406 10.07454,7.32125 19.80778,15.48429 29.31035,23.5362 19.60006,16.60793 37.66122,34.81526 56.99234,51.64259 11.51535,10.02385 21.51982,21.75355 31.82265,32.97934 7.31646,7.97193 15.04119,16.12453 13.53568,27.73813 -3.64948,28.15079 -11.32949,57.45186 -18.58472,84.846 -3.04462,11.49597 -5.03255,26.62213 -11.45751,36.70902 -5.23828,8.22371 -17.01879,13.17423 -25.08621,18.20882 -17.53004,10.93986 -36.10244,20.0714 -54.54982,29.31381 -8.84612,4.43206 -18.57389,11.14471 -28.49617,12.60627 -12.11048,1.78391 -24.11064,-11.24939 -33.38123,-17.68259 -28.2487,-19.60256 -55.60859,-40.19362 -83.04599,-60.90181 -8.13083,-6.13672 -16.20829,-12.35959 -24.42529,-18.37691 -2.6906,-1.97027 -8.17089,-4.83282 -7.66809,-8.83746 0.76468,-6.09022 6.35857,-1.21628 8.48226,0.77429 7.6831,7.20143 15.61674,14.16255 23.61112,21.0188 25.55373,21.91599 53.40637,39.63751 81.41763,58.14222 9.33113,6.1643 23.16288,18.44252 35.00959,16.98377 9.78284,-1.20462 20.55576,-7.57469 29.31035,-11.88746 16.36164,-8.06017 32.9799,-15.64191 48.85058,-24.67367 8.31529,-4.73215 17.38155,-9.61495 22.689,-17.94821 8.22724,-12.91737 10.51632,-29.47771 14.25684,-44.05464 6.31245,-24.6005 13.12998,-49.80878 16.43797,-75.05609 1.5401,-11.75419 -8.46239,-20.25365 -15.9317,-27.73812 -17.86934,-17.90557 -35.47233,-36.77593 -54.54981,-53.37502 -16.92974,-14.73029 -34.40273,-28.74595 -52.10729,-42.54628 -9.79924,-7.63833 -20.87371,-14.6827 -29.16902,-24.00525 -8.55114,-9.61007 -12.21782,-22.75683 -17.49038,-34.26476 -7.24639,-15.81599 -18.18798,-32.512366 -21.23071,-49.765432 -1.57418,-8.925797 0.31347,-18.675893 0.31347,-27.738122 h -0.81418 c -1.08172,8.009195 -6.18971,14.934362 -11.22315,21.069197 -2.29365,2.795533 -7.40282,5.874805 -9.30906,0.869299 -1.61195,-4.232796 1.20387,-11.068531 1.80616,-15.411876 2.09288,-15.093298 5.931,-30.648085 11.39847,-44.870488 h -0.81418 c -5.35367,13.826644 -12.40049,32.301951 -24.42529,41.607178 -3.52913,-9.442558 -2.44253,-21.053054 -2.44253,-31.001423 0,-17.9474948 0.0858,-35.897272 -6e-4,-53.844574 -0.0442,-9.194284 -3.70891,-21.799468 1.31429,-30.18241 5.14824,-8.591587 16.12233,-15.09628 23.92578,-21.117781 16.39553,-12.651699 32.81124,-25.348198 49.66475,-37.387618 32.17885,-22.98717 66.1904,-42.80353 103.4004,-56.48597 29.36323,-10.79705 60.58419,-17.07817 91.18776,-23.21263 38.86599,-7.79057 79.20647,-13.43336 118.86974,-13.543 m -29.31035,14.6849 c -1.64604,6.34345 -7.70327,11.44308 -11.87036,16.31652 -15.61723,18.2646 -35.61703,27.44794 -55.70627,39.52608 -40.47387,24.33379 -81.22244,48.727548 -120.4981,74.96167 -17.8123,11.8976 -40.09064,23.054489 -53.11686,40.519375 -7.56522,10.14297 -16.25709,25.0387725 -18.69028,37.528038 -1.17008,6.005766 2.46072,15.33211 0.10495,20.383725 -1.66761,3.576116 -6.14369,6.2632 -8.90127,8.989227 -7.34508,7.261083 -14.94241,14.233653 -21.7497,22.024136 -5.58077,6.3867 -13.34427,21.992379 -21.40165,24.47482 -2.03952,-12.022304 -1.62835,-22.805224 -1.62835,-35.080567 0,-4.296032 1.41308,-11.758189 -1.30545,-15.379221 -4.86707,-6.482685 -12.00612,3.602521 -14.97808,7.220956 h -0.81418 c 1.6207,-12.83871 10.6811,-29.646531 8.22843,-42.422408 -0.94238,-4.9086945 -5.27605,-6.7087581 -8.89184,-3.1625159 -5.42284,5.3185025 -9.98101,14.2581406 -13.17759,21.1101119 h -1.62835 c -4.64951,-15.7614312 -0.74152,-38.402613 -0.032,-54.660394 0.24568,-5.629135 -1.8316,-14.663086 1.33745,-19.567888 4.68012,-7.243658 15.30804,-12.148476 22.30567,-16.874933 16.7733,-11.329362 33.39504,-22.898844 50.47893,-33.761712 26.67849,-16.96376 53.34982,-36.45678 82.23181,-49.46768 36.56658,-16.4728 78.06314,-24.35033 117.2414,-31.75432 23.44275,-4.43028 48.53473,-10.72456 72.46169,-10.92302 m 192.959796,64.45031 c -1.75238,10.19875 -8.15508,20.7321 -12.32634,30.18561 -7.564724,17.143922 -14.004987,36.894859 -24.953631,52.212913 -10.195293,14.264034 -22.290464,26.13635 -31.110244,41.607174 -5.723286,10.039094 -10.560042,20.9073612 -14.3762947,31.81725 -1.10379,3.15566 -2.208573,9.659968 -6.8079933,7.886402 -2.69676101,-1.039911 -8.421836,-3.993102 -8.945803,-7.146761 -0.510848,-3.075189 2.624009,-7.809206 3.896756,-10.52957 3.680888,-7.8672747 7.1091353,-15.8768555 10.9649443,-23.658973 4.3503577,-8.779993 8.8420427,-17.10518 15.4091227,-24.474802 10.279175,-11.535006 23.330645,-21.002967 31.55808,-34.264736 9.962927,-16.059201 11.773356,-39.033607 23.664585,-53.028747 l -37.452113,15.75505 -103.400399,63.581627 -31.752878,16.228998 -15.469358,8.379153 -13.02681,-1.966461 c 2.91939,-5.154694 11.90176,-8.179374 17.0977,-10.807811 12.987463,-6.569939 25.619123,-14.033186 38.266288,-21.238599 42.783219,-24.374607 82.87246,-58.228537 130.268219,-72.734457 9.228458,-2.82444 18.818289,-7.01123 28.496169,-7.80326 m -21.168582,17.94821 c -0.07553,8.47355 -4.494866,16.87173 -7.953923,24.474795 -4.794218,10.538027 -8.44867,20.385014 -16.014586,29.369765 -12.40327,14.72922 -28.060263,25.660907 -36.893162,43.238839 -5.0011417,9.952541 -9.304589,20.21521363 -14.244111,30.1855912 -1.10856,2.2376448 -3.068069,9.2960668 -5.7320321,9.8869218 -2.3795179,0.52781 -5.3082469,-2.520779 -7.1252359,-3.705874 -5.50066,-3.587671 -11.103688,-6.7024892 -17.065701,-9.4443575 -23.110206,-10.6282609 -46.412426,-19.2137495 -70.833343,-26.1064545 12.034543,-11.327169 31.093943,-17.274983 45.593875,-24.871368 25.819687,-13.526675 50.913653,-28.74009 74.904226,-45.310566 15.545879,-10.737712 35.534545,-27.660442 55.363993,-27.717292 m -279.533814,81.038833 0.54265,0.271872 -0.54265,-0.271872 M 128.32405,97.59069 v 1.631646 L 97.38534,95.143198 v 0.815828 l 45.59388,5.710784 v 0.81583 c -14.01154,4.15014 -31.86757,1.63165 -46.40805,1.63165 -6.180474,0 -14.777628,0.47862 -20.354418,-2.56141 C 66.198368,96.094759 57.467837,82.06696 49.348932,73.931686 l 40.217454,54.798954 30.867144,63.49598 40.82331,94.63592 20.43154,53.02875 9.32725,26.10647 c -5.99004,-3.7735 -8.18748,-17.99759 -11.02478,-24.47482 -10.21815,-23.32615 -23.52484,-48.16943 -30.49822,-72.60859 h -0.81417 c 5.87415,24.83642 19.90001,49.21552 29.89017,72.60859 12.93737,30.29476 23.50159,62.87525 28.02249,95.45174 1.84085,13.26438 4.75745,27.43122 4.77892,40.79138 0.007,4.12682 1.3926,10.56173 -2.44253,13.05321 -0.0616,-22.38375 -7.01194,-44.42591 -14.61184,-65.26614 -13.36872,-36.65914 -31.34937,-71.0626 -46.57324,-106.87333 -9.22925,-21.70936 -19.78949,-43.60504 -26.95269,-66.082 -7.34508,-23.0476 -9.74686,-47.73633 -16.79677,-70.97695 C 98.56785,163.7362 89.813256,148.08601 82.730166,131.03959 h -0.814179 c 12.342839,29.70498 21.318463,58.38451 28.687203,89.74096 3.00883,12.80377 7.22402,26.06275 8.62359,39.15971 2.5775,24.12106 0.0594,50.31884 -2.88242,74.24024 -4.71073,38.30473 -11.1659,75.63399 -27.527954,110.95248 -9.455653,20.4103 -20.003769,40.38592 -33.068954,58.73954 -4.955822,6.96182 -10.054959,15.28641 -16.982813,20.39567 3.132671,-7.54302 9.302601,-14.28892 13.655145,-21.21149 9.416896,-14.97759 18.233297,-30.51992 25.843739,-46.50215 25.370067,-53.27743 35.411507,-110.46101 35.405347,-168.87617 h -0.81417 c 0,75.76843 -21.620804,153.22377 -62.971067,217.00996 -9.572933,14.76716 -19.565278,29.46379 -31.545558,42.423 -4.200879,4.54402 -8.4321707,11.32339 -14.583019,13.05324 0.54444,-12.51685 7.018892,-25.80392 11.118993,-37.52805 C 26.059234,490.65277 41.269385,460.8231 54.224648,429.63226 66.302923,400.55289 78.4293,371.34117 86.072346,340.70713 100.53809,282.72724 102.16962,217.12058 84.944696,159.59352 76.261278,130.59284 64.510781,99.91139 42.835521,78.010833 56.12214,99.389238 69.584077,119.29015 78.095758,143.27698 102.10125,210.92649 98.3009,293.07366 78.072498,361.1028 c -13.148869,44.22036 -36.524039,84.3858 -52.803393,127.269 -10.880465,28.66139 -21.63133,58.39229 -29.26642,88.10931 -2.167029,8.43413 -4.4167473,16.83579 -6.515796,25.29064 -0.839222,3.38043 -0.741425,7.57847 -3.643717,9.78992 l 4.070881,-75.8719 h -0.814176 l -4.885058,38.34387 h -0.814177 c -0.685967,-16.01499 -1.752188,-35.76932 2.687617,-51.39711 C -9.7144347,507.86189 0.18508299,493.28824 6.7698543,479.39775 19.630898,452.26783 31.219793,425.29486 38.858858,396.18341 53.949744,338.67399 64.132912,277.94358 61.529575,218.33315 60.447253,193.5508 52.975555,169.4118 50.977285,144.9087 h -0.814176 c 0.601886,29.27447 6.828069,58.76067 8.109761,88.10932 2.161662,49.49476 -4.976097,103.31535 -18.457911,150.92799 -4.73081,16.70713 -9.720821,33.17663 -14.983151,49.76545 -1.73251,5.46141 -3.807308,15.69791 -8.864107,18.764 17.294887,-53.26007 35.82376,-106.45006 35.82376,-163.16539 h -0.814176 c -1.331385,10.55618 -1.139569,21.27266 -2.799924,31.81726 -4.906128,31.15898 -13.482808,61.11561 -22.091491,91.37263 -12.16335,42.75075 -26.70442801,85.03164 -50.012811,123.18988 h -0.814176 c 0.04154,-15.06792 4.321137,-30.73017 6.284026,-45.68633 7.983938,-60.83218 25.3845723,-120.01341 36.614879,-180.29776 7.854734,-42.16495 9.418486,-86.89024 7.548027,-129.71648 -0.665891,-15.24874 -4.540783,-30.49901 -4.853056,-45.68631 h -0.814176 c 0.129998,15.74231 2.859755,31.55245 3.244779,47.31796 0.981941,40.20219 -1.873639,80.93985 -7.315661,120.74239 -1.793533,13.11716 -4.523092,26.06763 -6.4066697,39.15968 -0.672848,4.67708 -1.064829,13.32443 -4.9917993,16.31655 C 9.2340493,298.6419 15.078587,239.54014 11.009892,179.98927 8.8265633,148.03229 1.74466,117.50899 -3.572532,86.169162 H -4.386708 C -2.111149,114.81862 5.7803593,142.98227 7.7531863,171.831 c 3.8573987,56.40838 1.206357,115.07512 -4.1362783,171.32366 -3.96036401,41.69661 -13.876976,82.78493 -21.099015,124.00571 -2.680461,15.29914 -6.592523,30.94205 -7.25901,46.50213 h -1.628353 l -12.888674,-68.52946 -5.01128,-62.00285 1.616426,-61.18703 h -0.814176 c -4.693838,37.21283 -2.116739,74.57467 0.814176,111.7683 -3.833943,-2.92402 -3.398431,-10.98489 -4.136278,-15.50071 -2.389258,-14.62356 -3.87986,-29.42276 -6.247651,-44.05467 -3.993757,-24.67975 -3.457069,-49.36947 -3.457069,-74.24024 0,-31.57714 0.281464,-63.38613 5.108679,-94.63594 1.958316,-12.67698 9.457644,-23.94449 11.174849,-36.7122 h -0.814177 l -12.649152,32.63307 -19.361337,46.50215 -11.955035,20.39565 17.91188,-41.60716 h -0.814176 c -15.316097,39.55786 -37.702565,75.65591 -65.364085,107.68915 -8.10777,9.38918 -20.88295,27.55121 -33.15125,31.00142 1.78757,-13.3008 10.28375,-21.00943 18.52251,-31.00142 7.90841,-9.59133 15.00065,-19.93777 22.03047,-30.1856 22.14694,-32.28482 41.503708,-66.14412 58.977491,-101.16254 8.083325,-16.19932 19.082259,-35.78515 21.781802,-53.84457 h -0.814176 c -4.911098,18.03085 -14.379277,35.44265 -22.45147,52.21292 -13.034176,27.07855 -26.918905,54.84643 -43.496817,79.95104 h -0.81418 l 12.21265,-24.4748 h -0.81418 c -9.98698,23.91063 -26.38419,47.6215 -41.53173,68.52945 -4.74333,6.54704 -11.4913,18.94897 -19.53149,21.21151 0.87341,-19.1576 9.91463,-40.54188 15.67668,-58.73953 15.23241,-48.1062 34.19996,-93.80597 53.528308,-140.32226 h -0.814177 c -27.938801,67.23891 -58.529851,133.5604 -72.910121,205.5884 -9.32904,46.72721 -10.13586,93.00706 -10.13586,140.32225 h -1.62835 c -0.36177,-43.80749 -2.56219,-86.79156 2.67489,-130.53233 2.12211,-17.72401 5.17229,-35.65228 9.27398,-53.02875 1.73072,-7.33209 4.85186,-14.59395 5.96301,-22.02731 h -0.81418 c -3.6797,15.94067 -9.79576,31.12022 -12.81453,47.31796 -11.57439,62.10462 -12.62908,127.74463 -2.19506,190.08767 2.99095,17.87094 6.22937,35.56815 11.17485,53.02876 1.79035,6.32107 2.69616,15.39894 7.09145,20.39567 l -0.81418,-4.89496 48.85057,4.68345 27.682,-3.0518 v -0.8158 h -2.442529 c 2.232625,-3.97738 9.363824,-13.96438 14.585405,-13.43537 6.233141,0.63149 15.648248,15.14747 19.140699,19.96195 4.489697,6.18943 12.44044,13.77029 8.994303,22.02734 -6.787122,16.26196 -21.662538,23.56817 -36.206996,31.70332 -11.089177,6.20246 -21.579652,13.20241 -31.752882,20.81495 -15.35346,11.4889 -29.04199,30.11529 -47.22222,36.77892 -12.38419,4.53925 -25.25934,5.33496 -38.26629,6.22757 -26.81216,1.8399 -54.38205,-1.44533 -79.78928,-10.51442 -17.04861,-6.08565 -32.50822,-15.625 -48.03641,-24.75248 -30.0304,-17.65182 -59.39104,-36.68083 -90.37357,-52.70448 -27.17006,-14.05202 -56.1734,-23.18614 -85.48852,-31.56111 -39.23969,-11.21036 -81.87581,-21.6513 -122.94064,-21.67857 2.49879,-13.87434 14.61821,-28.97381 20.96693,-41.60717 12.64498,-25.16258 23.24478,-51.1818 33.23732,-77.50359 5.30994,-13.98705 9.45695,-28.78447 25.58504,-33.44888 -10.60566,-16.26616 -7.33604,-45.16368 14.65517,-48.13379 v 4.07912 c -13.73624,2.45515 -15.80766,17.86175 -13.77252,29.36978 0.67524,3.81811 2.05284,10.15909 5.80419,12.18263 3.58945,1.9363 10.56471,-0.41897 14.48174,-0.68806 11.40364,-0.78347 23.68397,-2.99571 35.00959,-0.88884 0.16965,10.10425 2.44253,19.96966 2.44253,30.18562 0,4.03918 1.25764,8.98136 -2.44253,11.42158 13.44285,6.70098 25.86431,17.56099 38.26629,26.08633 25.19176,17.31721 51.00051,34.18258 77.34675,49.67223 12.46271,7.32711 24.78319,15.80208 38.26629,21.15863 29.84764,11.85787 61.31905,18.60459 92.81611,24.29485 9.97227,1.80154 20.08606,3.0471 30.12452,4.42531 4.16809,0.57222 10.03031,0.168 13.69093,2.43802 7.39914,4.58812 13.02225,18.20543 18.06195,25.3001 12.37127,17.41558 25.61634,33.82663 40.70882,48.9496 l -20.35441,-65.26615 h -0.81417 v 3.26331 h -2.44253 c -0.92152,-10.57208 -6.83563,-21.57042 -9.77012,-31.81726 -5.49987,-19.20438 -9.6266,-39.00353 -12.68135,-58.73954 -4.68351,-30.25938 -7.93504,-60.81874 -9.26941,-91.37263 -0.69074,-15.81738 1.20556,-31.61279 -0.032,-47.31795 h -0.81418 c 0,24.70854 -1.86589,49.42644 -0.78217,74.24025 1.37829,31.55972 6.66328,63.0856 13.71736,93.8201 5.20985,22.69946 11.38376,45.97851 19.77081,67.71365 5.72348,14.83228 14.19442,30.23021 17.77294,45.68631 -5.67519,-3.57941 -9.73215,-10.19415 -13.73545,-15.50072 -8.51944,-11.2931 -16.37238,-23.0252 -23.76636,-35.08054 -24.69026,-40.25539 -40.69987,-84.32777 -49.98081,-130.53233 -3.65425,-18.1929 -8.53891,-37.65939 -8.5902,-56.29208 h -0.81417 c 0.0278,41.993 9.12649,86.84536 25.12636,125.63737 4.80714,11.65502 10.14898,23.2464 16.28293,34.26474 3.67672,6.60429 9.22787,13.21237 11.51217,20.39567 -3.67194,-2.07283 -5.26233,-6.2434 -7.49018,-9.71693 -5.12001,-7.98251 -9.95836,-16.22611 -14.51266,-24.5478 -13.98192,-25.54786 -27.07116,-51.76458 -37.17263,-79.13523 -3.69898,-10.02266 -9.47951,-21.90523 -10.02952,-32.63308 h -0.81418 c 0.45698,10.64242 4.74771,21.03723 8.13918,31.00143 7.97818,23.4391 18.48694,46.02172 30.37598,67.71365 5.63006,10.27242 18.02836,23.4128 19.29137,35.08055 -20.38582,0 -41.03183,-4.70295 -61.06323,-8.09215 -8.24791,-1.39542 -21.20874,-2.01098 -28.22862,-6.77847 -4.24839,-2.88526 -7.51345,-9.52989 -10.50638,-13.68332 -7.8597,-10.9078 -16.61965,-22.02804 -22.32823,-34.26473 h -0.81417 c 3.65822,12.46246 13.71477,24.42102 20.89964,35.08057 2.48785,3.69093 6.3371,7.15511 7.59653,11.42155 -21.88934,-1.80602 -46.42098,-16.02752 -65.13411,-26.69311 -5.01814,-2.86009 -16.85152,-7.32402 -19.44164,-12.63776 -1.88845,-3.87428 2.90855,-11.73359 4.44338,-15.32953 2.73522,-6.4083 5.81472,-15.77586 10.6321,-20.87031 4.28019,-4.52638 16.33232,-9.06144 22.27804,-10.94694 l 8.14176,20.39569 h 0.81418 c -1.38744,-5.86616 -7.96873,-15.62462 -5.20469,-21.70885 2.57273,-5.66328 17.71371,-9.92577 23.11657,-12.73715 13.87161,-7.21807 27.48402,-14.85398 40.70882,-23.2178 7.95034,-5.02803 15.82893,-10.07943 19.74755,-19.02395 10.21974,-23.32764 14.21509,-50.36746 20.05287,-75.05608 3.50338,-14.81595 9.88262,-32.8728 9.01498,-48.13377 -0.76628,-13.47741 -16.41591,-17.83418 -19.24685,-29.36979 -3.8727,-15.78015 5.89205,-34.31293 7.88356,-49.76543 h -0.81418 l -9.77011,45.68629 c -8.56038,-2.40933 -7.11132,-9.3584 -5.90278,-16.31653 2.42205,-13.94434 5.61515,-27.72797 8.3459,-41.60718 11.90415,-60.50515 42.93449,-119.429318 85.48793,-163.981227 -13.14669,9.279537 -23.88245,25.325994 -33.1443,38.343869 -27.39397,38.503508 -44.31417,83.359838 -55.94262,128.900668 -3.7443,14.66377 -4.06631,30.49443 -8.61425,44.87049 -5.8181,-1.63624 -18.98883,-13.34144 -19.95746,-19.57987 -1.19164,-7.67506 0.99506,-16.83747 1.91936,-24.47479 2.22785,-18.40729 6.62452,-36.37373 9.08216,-54.66043 h -0.81418 c -5.2993,25.72267 -12.21264,50.95973 -12.21264,77.50358 -6.25083,-3.15904 -4.25236,-12.85315 -3.48609,-18.76402 2.16683,-16.71409 6.13753,-33.15831 8.37115,-49.76544 h -0.81418 l -9.77012,62.81867 c -5.34164,-0.88055 -9.18254,-6.15734 -13.02622,-9.65139 -8.34511,-7.58614 -16.60037,-15.23422 -25.24006,-22.50077 -13.31227,-11.19662 -26.55764,-22.63173 -40.70882,-32.76524 -4.35185,-3.11632 -14.45193,-7.67318 -15.60949,-13.40517 -0.61143,-3.02788 2.43895,-6.60261 3.96036,-8.97092 4.46158,-6.94509 9.12739,-13.52855 14.58044,-19.71837 21.40016,-24.29176 42.0563,-47.578993 65.4595,-70.022593 -24.9745,16.553754 -45.87733,41.950355 -64.31745,65.266153 -5.29681,6.69731 -9.78959,14.16454 -14.63688,21.21151 -1.61414,2.34671 -3.79062,7.54252 -6.76417,8.36103 -3.74211,1.03005 -5.40664,-5.98645 -6.33372,-8.36103 -2.78839,-7.14207 -14.01979,-24.05674 -9.2537,-31.00143 22.93856,-33.424003 59.64776,-56.538648 89.90745,-82.398527 -25.46646,12.694413 -50.51123,37.52236 -69.98716,57.923716 -5.59806,5.864065 -11.22256,11.831787 -16.54482,17.948201 -1.47082,1.69032 -4.3433,6.17785 -6.99782,5.77503 -3.25164,-0.49347 -5.07022,-7.16867 -4.76758,-9.85418 0.81556,-7.237959 9.77687,-15.796579 14.23367,-21.211497 20.02514,-24.330111 45.3309,-52.352643 74.2936,-66.081982 v -0.815817 c -35.66743,16.687901 -69.13115,52.497535 -89.5594,85.66182 -11.24442,-13.650069 8.10151,-29.124971 16.75283,-39.159687 14.35482,-16.65016 32.2521,-33.941775 51.63798,-44.616136 15.3151,-8.432835 32.36848,-13.246629 48.85058,-18.7463989 43.16924,-14.4048311 87.70823,-24.2777111 133.52493,-22.2672231 42.70747,1.874047 89.660964,17.1142458 127.011504,37.519264 18.8270332,10.285377 37.659433,23.555511 53.73564,37.737676 8.165219,7.203207 14.738262,17.09492 23.611115,23.24658 13.041332,9.041825 29.723599,13.359472 44.779711,17.660579 10.88503,3.10955 22.03523,6.910841 33.38123,7.809527 m -420.92919,-97.08341165 0.81418,0.81581755 -0.81418,-0.81581755 m -2.44252,0.81581755 0.81417,0.8158368 -0.81417,-0.8158368 m -6.51342,3.2633288 v 0.8158176 l 3.25671,-0.8158176 h -3.25671 m -13.84099,7.3424363 v 0.815828 l 13.02682,-6.5266195 -13.02682,5.7107915 m 36.63793,-0.815836 0.81418,0.815836 -0.81418,-0.815836 m -5.69923,3.263309 0.81417,0.815828 -0.81417,-0.815828 m -3.25671,2.447482 0.81418,0.815827 -0.81418,-0.815827 m -1.62835,0.815827 0.81418,0.81582 -0.81418,-0.81582 m -1.62835,0.81582 -14.65518,10.605755 c 4.00469,-1.543417 13.46095,-6.370262 14.65518,-10.605755 m -3.25671,37.528049 2.44253,-0.815827 -2.44253,0.815827 m -144.65197,7.070464 0.27133,0.543946 -0.27133,-0.543946 m 480.906805,14.14103 0.814176,0.815826 -0.814176,-0.815826 m -47.222229,6.526618 v 2.447483 h 0.814176 L -5.200884,83.721679 M -417.9883,98.406564 c 1.33526,2.823636 3.87241,6.571726 3.65127,9.789926 -0.58747,8.54847 -12.37395,21.04927 -16.67809,28.55395 -14.55877,25.38484 -24.35035,52.27885 -37.25046,78.31939 -4.991,10.07494 -9.28421,24.50528 -18.11353,31.81725 1.63541,-12.15772 7.76688,-24.27444 11.60827,-35.89639 13.2092,-39.96407 30.62464,-78.26649 55.15419,-112.584126 h 1.62835 m 5.69924,12.237416 c 1.38366,3.33023 4.79074,7.70035 4.3592,11.42157 -0.53361,4.60177 -6.25113,9.48261 -8.93954,13.05323 -7.90592,10.5004 -16.01956,20.91065 -23.3705,31.81726 -3.27201,4.85464 -8.12159,16.78202 -13.57216,18.76402 l 9.56906,-20.39567 20.55547,-37.52804 11.39847,-17.13237 m 338.69736,4.07913 -9.770116,14.68488 h 0.814176 l 8.95594,-14.68488 m 90.373577,5.71078 v 2.44749 h 0.814177 l -0.814177,-2.44749 m 59.434875,0.81583 4.885059,9.78993 h 0.814176 l -5.699235,-9.78993 m -481.992402,4.07914 16.28353,34.26474 c -25.69546,7.46553 -47.90353,35.32146 -65.93636,53.84459 -6.02036,6.18402 -11.65022,15.88501 -19.55216,19.57983 14.63082,-40.40883 43.78981,-72.82621 67.57664,-107.68916 h 1.62835 m 424.18588,1.63165 0.814177,0.81584 -0.814177,-0.81584 m -102.586222,3.2633 -2.442529,4.89497 h 0.814176 l 1.628353,-4.89497 m 103.400399,2.44749 0.814176,0.81583 -0.814176,-0.81583 m -60.249052,1.63166 0.814177,0.81582 -0.814177,-0.81582 m -46.408053,1.63165 -5.699234,11.42157 h 0.814176 l 4.885058,-11.42157 m 44.23685,6.25465 0.271525,0.54394 -0.271525,-0.54394 m -1.085502,1.90364 -0.814177,4.89495 h 0.814177 v -4.89495 m 93.630282,0 0.814177,0.8158 -0.814177,-0.8158 m -309.387012,3.26328 0.81418,0.81584 -0.81418,-0.81584 m -2.44253,5.71079 0.81418,0.81584 -0.81418,-0.81584 m -0.81418,1.63167 -1.62835,6.52659 h 0.81418 l 0.81417,-6.52659 m 225.798177,3.80714 0.271524,0.54396 -0.271524,-0.54396 m -233.125757,2.71945 -2.44253,8.97412 h 0.81417 l 1.62836,-8.97412 m -121.31228,1.08404 c 8.93954,-1.55219 18.61404,10.40637 25.23946,15.57879 21.86788,17.07231 44.57855,33.95004 64.31994,53.49512 15.00561,14.85628 30.67572,29.10945 45.59387,44.05784 6.53767,6.55081 16.15155,13.88819 19.43171,22.84316 2.5761,7.03332 0.36534,15.77328 -1.03919,22.83121 -2.27019,11.40824 -4.16152,22.8834 -6.80243,34.27668 -5.19912,22.43075 -7.48044,51.33455 -20.1779,70.97694 -6.44742,9.97377 -17.83038,15.15893 -28.05012,20.36799 -15.96649,8.13825 -31.58611,16.84087 -48.03641,24.03294 -6.72172,2.93874 -13.86763,7.14057 -21.16858,8.36213 -10.72801,1.79487 -19.02849,-4.31965 -27.682,-9.78416 -14.57457,-9.20354 -28.80666,-18.87815 -43.15135,-28.42934 -19.34374,-12.87986 -37.19947,-26.87021 -54.78228,-42.07675 -5.34025,-4.6185 -16.31901,-11.31034 -18.67447,-18.19188 -1.47659,-4.31387 0.23226,-11.77958 0.76259,-16.28378 1.07914,-9.16421 0.94606,-18.53575 1.79989,-27.73812 1.90227,-20.50082 4.48821,-41.24567 9.70542,-61.18702 1.68172,-6.42781 2.33956,-13.62666 5.45295,-19.57983 9.92377,-18.97547 29.21415,-34.07224 43.38501,-49.76547 10.52446,-11.6551 22.05144,-22.35138 34.33365,-32.14269 5.63364,-4.49114 12.21434,-10.37172 19.54024,-11.64376 m 353.352534,-0.26819 0.814177,0.81582 -0.814177,-0.81582 m -0.814176,1.63166 -0.814176,4.89496 h 0.814176 v -4.89496 m -190.517268,45.68629 -2.44252,5.7108 h 0.81417 l 1.62835,-5.7108 m -3.2567,6.52663 -2.44253,8.15828 h 0.81418 l 1.62835,-8.15828 m 166.906148,6.52661 0.814176,0.81583 -0.814176,-0.81583 m 9.770116,0.81583 c -0.113897,13.79777 -2.621028,27.78411 -3.224703,41.60717 -1.233787,28.24801 -0.62395,56.67019 1.59635,84.84601 l -12.180643,-10.60575 -26.085646,-28.55395 c 7.984136,11.70023 17.54236,22.69975 26.761675,33.44891 4.382161,5.10927 11.315183,11.06027 12.318791,17.94821 l -2.442529,-0.81585 c 8.819979,22.7862 8.208353,50.88971 12.558114,75.0561 2.996511,16.64794 11.043459,35.32234 10.9882,52.21292 -0.03618,11.08815 -6.738422,22.08906 -7.230784,33.4489 -0.441874,10.19146 2.39045,21.01711 4.251169,31.00142 0.722741,3.87836 3.334426,9.21193 1.390222,13.02117 -5.860837,11.48231 -24.243413,9.17685 -34.16897,12.99848 -7.084687,2.7277 -10.138444,11.79282 -17.098301,15.12046 -14.035199,6.71066 -38.113819,1.70574 -52.921459,-0.1165 -4.52229,-0.55649 -14.1316,0.26201 -17.14859,-3.75168 -2.40615,-3.20118 -2.70292,-8.96931 -3.55129,-12.7971 -2.03941,-9.20095 -4.19193,-18.42801 -5.6881,-27.73811 -6.29973,-39.20004 -5.3649,-77.19076 -5.3649,-116.66326 l 17.09771,7.34246 -16.28353,-13.05325 23.61112,13.05325 v -0.81583 c -3.54434,-1.69121 -6.21466,-3.45403 -7.32759,-7.34246 l 13.70285,-9.4557 6.88452,-6.27984 8.72298,4.78672 21.16857,20.73875 c -10.5825,-17.17967 -26.24863,-27.97753 -42.33716,-39.50347 -5.03275,-3.6055 -18.44638,-9.87447 -20.09481,-16.04895 -4.76122,-17.83437 22.92555,-33.47361 32.88927,-44.79431 20.75254,-23.57889 39.634835,-48.88786 55.758946,-75.87189 7.868252,-13.16777 16.720432,-27.61194 21.005989,-42.423 h 2.442529 m -10.312967,1.35967 0.271525,0.54395 -0.271525,-0.54395 m -28.767498,20.66767 -4.885059,11.42157 h 0.814177 l 4.070882,-11.42157 m 236.925331,8.15826 0.81418,0.81582 -0.81418,-0.81582 m 0.81418,1.63165 1.62835,2.44748 -1.62835,-2.44748 m 2.44252,4.07913 v 2.44747 h 0.81418 l -0.81418,-2.44747 m 0.81418,3.2633 0.81418,0.81582 -0.81418,-0.81582 m 1.89968,2.99134 0.27152,0.54396 -0.27152,-0.54396 m 0.81418,2.44748 0.27152,0.54396 -0.27152,-0.54396 m -308.03,15.7727 -0.81417,4.07914 h 0.81417 v -4.07914 m 271.93491,3.2633 0.81418,0.81584 -0.81418,-0.81584 m -212.50004,18.76402 0.814177,0.81582 -0.814177,-0.81582 m 0.814177,1.63165 3.256705,3.2633 -3.256705,-3.2633 m 57.263671,9.51796 0.271525,0.54394 -0.271525,-0.54394 m -67.847968,41.06331 c 4.00529,6.97716 10.277192,12.33222 13.918325,19.57986 3.835534,7.63482 4.946479,20.05029 5.621912,28.55394 h 1.628352 c -0.149477,-18.10824 -3.178189,-38.77578 -21.168589,-48.1338 m -402.20312,20.39568 -3.2567,7.34243 c -14.15387,-4.0855 -8.85337,-13.44171 3.2567,-7.34243 m 26.05365,39.97551 c -11.17535,0 -22.25886,-0.12497 -33.38123,0.95437 -4.13151,0.40092 -11.40116,3.0218 -15.28648,1.23756 -2.86632,-1.31624 -3.679,-5.96743 -4.33605,-8.71855 -1.91101,-8.00101 -2.35606,-23.59574 6.6284,-27.66511 5.01804,-2.2728 10.33712,0.98174 14.62248,3.42454 10.49236,5.98099 31.97153,17.94939 31.75288,30.76719 m 317.52878,-26.10646 5.69924,4.07914 -5.69924,20.39567 0.81418,0.81582 12.21264,-16.31653 17.09771,12.2374 v 0.81583 c -5.1544,5.96833 -12.06575,16.28667 -21.16859,15.9911 -13.84815,-0.44976 -11.64594,-14.28504 -11.41039,-23.33354 0.11767,-4.52129 -0.33335,-10.99812 2.45445,-14.68489 m -72.46169,4.89496 v 9.78993 h 0.81417 l -0.81417,-9.78993 m 0.81417,11.4216 v 4.07912 h 0.81418 l -0.81418,-4.07912 m 113.17052,4.89494 c 6.56827,9.34188 19.07131,20.17988 29.310339,25.29064 -4.462269,-9.58168 -19.858079,-20.78993 -29.310339,-25.29064 m -346.83914,54.66041 c -8.17058,-3.46906 -6.75194,-8.80072 -7.46583,-16.31654 -1.17276,-12.34764 -2.30428,-25.11436 -2.30428,-37.52804 8.33417,2.77194 6.7746,8.22319 7.46583,15.50072 1.20914,12.72996 2.30428,25.53911 2.30428,38.34386 m 0.81418,-46.50215 7.98036,6.55941 0.1614,14.6521 5.69924,35.08058 c -15.87455,-6.95067 -12.72737,-23.59147 -13.91077,-38.34387 -0.44605,-5.56042 -2.14795,-12.6524 0.0698,-17.94822 m 27.682,65.26618 c -3.49464,-1.11589 -7.89608,-3.22358 -9.74815,-6.60281 -1.94053,-3.54056 -1.54656,-9.03454 -2.30558,-12.97704 -2.08772,-10.84326 -8.71214,-26.06822 -4.2298,-36.71221 5.06544,2.14572 14.43364,7.82802 16.63536,13.08529 1.60161,3.82428 0.46393,8.97738 0.46234,13.02117 -0.004,10.08897 -0.78654,20.1477 -0.81417,30.1856 m 296.3602,-46.50213 0.81417,0.81582 -0.81417,-0.81582 m 3.2567,1.63164 0.81418,0.81582 -0.81418,-0.81582 m 39.89463,0 3.25671,4.07913 -3.25671,-4.07913 m -335.44065,3.26331 c 17.69213,10.49978 4.70556,32.54893 4.07088,47.31796 -2.7873,-1.26965 -4.55042,-2.45396 -4.83735,-5.72334 -0.80434,-9.1648 0.76647,-19.24404 0.76647,-28.5414 0,-3.99706 -1.31837,-9.37004 0,-13.05322 m 532.471336,0.81582 c -2.69119,20.88078 -9.757394,41.27197 -13.495529,62.00285 -4.117395,22.83379 -5.230527,47.01073 -5.230527,70.16113 h -0.814176 c -5.196735,-15.39079 -10.61391,-30.71682 -14.55221,-46.50215 -1.529165,-6.12926 -4.567815,-14.04185 -2.87665,-20.39567 1.726149,-6.48499 8.085113,-13.02097 11.564445,-18.76402 8.749017,-14.44109 19.052837,-30.17743 23.776297,-46.50214 h 1.62835 m -592.720386,4.07913 0.81417,0.81584 -0.81417,-0.81584 m 87.93105,57.10789 h -1.62836 l -17.91188,-55.47623 12.19009,8.30875 1.78846,16.16606 5.56169,31.00142 m -84.67435,-54.66041 0.81418,0.81583 -0.81418,-0.81583 m 2.44253,1.63166 1.62835,1.63166 -1.62835,-1.63166 m 2.44253,1.63166 7.32759,5.71079 v -0.81583 l -7.32759,-4.89496 m 84.67434,54.66039 c -4.26538,-2.61258 -4.29281,-9.29794 -5.0886,-13.86904 -1.94102,-11.14972 -2.10531,-23.42267 -4.68151,-34.26472 4.33535,1.44162 3.55397,7.43476 3.93263,11.42155 1.15488,12.15864 5.29215,24.75925 5.83748,36.71221 m -3.2567,-44.87046 c 7.66312,5.90218 22.85895,12.07956 27.65943,20.54614 1.98476,3.50053 0.21796,8.34888 0.0546,12.08693 -0.40252,9.21112 -0.032,18.51784 -0.032,27.73812 -19.49849,-2.16307 -17.57972,-27.01183 -21.16858,-41.60719 h -0.81418 l 3.25671,29.36978 c -3.26178,-2.09474 -3.54125,-7.00622 -4.53949,-10.60574 -2.62829,-9.47663 -8.33676,-28.16327 -4.41645,-37.52804 m -17.91188,7.34244 h 0.81417 l 7.32759,29.36977 c -13.52942,-4.31974 -15.31192,-17.93764 -8.14176,-29.36977 m 49.66476,14.68488 c 4.79223,3.94599 9.29395,5.69307 15.46935,5.7108 l -15.46935,35.08055 h -1.62836 v -28.55394 l 1.62836,-12.23741 m -39.08047,8.9741 1.62835,8.15826 -3.2567,-0.81582 1.62835,-7.34244 m 385.919593,0 c 2.791973,13.51791 10.835145,32.34507 -4.885059,41.60717 -1.973622,-15.56565 -1.573491,-26.47094 3.256706,-41.60717 h 1.628353 m -297.988543,7.34244 0.81417,0.81582 -0.81417,-0.81582 m 6.51341,13.05323 0.81418,0.81582 -0.81418,-0.81582 m 0.81418,1.63166 1.62835,4.07913 h 0.81418 l -2.44253,-4.07913 m 296.360187,10.60575 c 0,11.61627 1.161036,23.06743 -4.885058,33.4489 -7.619387,-10.98638 -4.019598,-24.87017 4.885058,-33.4489 m 10.584293,2.44747 c 0,15.52841 -2.277348,30.90921 -1.59635,46.50215 0.401721,9.19866 0.720951,18.58287 1.828716,27.7381 0.555572,4.59162 2.493614,10.0875 1.819375,14.6849 -1.500741,10.23148 -8.626573,24.0673 -14.264387,32.63308 h -0.814176 l 8.141764,-55.47625 h -0.814177 l -4.070881,24.47481 h -1.628353 c 0.06102,-22.16935 0.75355,-44.79021 2.370374,-66.89781 0.595923,-8.14852 0.705845,-19.33705 9.028095,-23.65899 m 7.327587,1.63166 0.8141769,0.81584 -0.8141769,-0.81584 m 30.124456,15.50071 c -5.146247,18.89397 -14.4222117,37.69892 -22.545688,55.47625 -3.315344,7.2551 -6.3307385,17.57512 -12.463896,22.84314 1.162428,-6.53358 4.234075,-12.98691 5.7934536,-19.57985 4.6546794,-19.67952 8.35902339,-48.99322 29.2161304,-58.73954 m -59.434875,22.84315 -16.283527,22.02734 h -0.814177 c -1.944999,-3.86682 -0.489778,-6.27008 1.628353,-9.78993 -5.629068,3.7702 -9.11317,3.39137 -12.212646,-3.2633 l 27.681997,-8.97411 M 94.94282,972.97308 h -0.814184 c -4.0691,-14.51582 7.027244,-24.11027 13.589754,-35.89636 13.71199,-24.62681 34.06779,-58.55951 20.45499,-87.2935 -3.75464,-7.92523 -12.10213,-10.97171 -18.40444,-4.0433 -7.19322,7.90791 -10.71807,19.87223 -15.439344,29.33396 -9.97983,20.00007 -25.498075,34.59931 -37.588873,53.02875 -9.243764,14.08994 -14.530941,30.76553 -22.341548,45.68628 -6.204119,11.8518 -15.128454,21.91199 -21.688179,33.44889 6.782152,-3.4432 11.040279,-12.55498 15.065443,-18.76401 11.536418,-17.79532 17.92003,-38.00527 28.36041,-56.29207 9.567765,-16.75821 24.836951,-29.56893 34.389607,-46.50214 6.889304,-12.21194 13.793894,-42.2718 30.470004,-42.42295 -2.19227,4.24172 -6.9205,6.62158 -9.73493,10.60568 -7.94657,11.24954 -16.581494,27.54636 -20.389604,40.79137 h 0.81418 c 6.645204,-10.99043 11.358914,-23.1675 17.923814,-34.26467 2.68404,-4.53708 6.12759,-10.86873 11.38396,-12.77823 5.32792,-1.93537 7.20693,5.72489 7.93126,9.51488 2.22089,11.62014 1.46476,23.87431 -2.23004,35.08061 -5.73442,17.39203 -14.66213,34.35883 -24.46882,49.76538 -6.60664,10.37909 -16.063294,21.50894 -19.496114,33.44894 l 8.14176,-8.97413 1.04734,11.42163 -14.074161,26.92221 c 4.686281,-4.0226 7.467131,-10.91882 10.396451,-16.31651 5.07111,-9.34436 10.410574,-18.5592 15.772094,-27.73809 19.86423,-34.00703 39.30766,-68.55036 58.3118,-103.02714 6.39952,-11.60996 12.45674,-23.62961 19.53328,-34.83565 1.96984,-3.11934 4.2625,-9.53754 7.20057,-11.63629 4.6835,-3.34567 9.43637,15.61939 17.27242,10.19911 8.74008,-6.04568 9.20242,-21.31656 16.77728,-28.34117 3.58091,-3.32079 11.3287,-2.82106 15.94303,-3.6826 -1.17634,11.50689 -12.13472,19.33255 -14.90901,30.18568 -0.76766,3.00269 0.64821,5.98501 -0.43531,8.97411 -3.66161,10.10172 -11.28378,19.96041 -16.52225,29.36975 -12.56269,22.56487 -25.48257,44.85982 -37.51692,67.7136 -5.99998,11.39419 -11.61274,22.99671 -17.84648,34.26469 -2.36521,4.27531 -4.10169,10.04013 -7.71062,13.44987 -5.19038,4.90402 -18.68273,5.97483 -25.55751,7.7617 v 0.81582 c 15.34452,-1.98566 30.21397,-6.51146 45.5907,-8.24702 5.82744,-0.65779 8.34212,-4.26476 14.65835,-1.54723 18.16552,7.81529 5.84752,38.43947 -9.77011,40.79567 v 1.6317 c 14.4558,-0.673 26.84555,-26.69125 17.59404,-38.34011 -8.33935,-10.50042 -24.48731,-8.16205 -36.3201,-8.16205 2.73651,-11.98331 12.06515,-25.12361 18.02498,-35.89642 10.32271,-18.65935 19.76922,-37.75125 30.35451,-56.292 5.32156,-9.32113 14.31666,-20.59966 16.75462,-31.00151 h 2.44253 l 13.61161,134.61147 6.49035,39.97552 3.50915,17.9482 h 0.81418 c -0.17989,-21.7808 -7.02863,-44.56957 -10.34298,-66.082 -3.93532,-25.54332 -5.25577,-51.80025 -7.70705,-77.50355 -1.83488,-19.23902 -8.10757,-42.93445 -1.4902,-61.18701 h 2.44252 c 3.90849,21.02012 4.31697,43.15481 5.77199,64.45036 1.52976,22.39131 4.7,44.58841 7.11967,66.89777 2.32545,21.44037 4.19869,48.21863 13.97616,67.71373 2.69199,-7.5402 -4.6509,-23.0734 -6.28104,-31.0014 -5.23391,-25.45509 -8.14156,-51.66631 -10.67851,-77.5037 -2.13324,-21.7249 -3.0957,-43.5469 -5.16135,-65.2661 -0.95292,-10.01994 -4.78826,-22.7388 -2.42802,-32.63309 4.62446,-19.3857 23.50616,-34.61234 28.06324,-53.84459 2.16226,-9.12548 -5.69486,-14.32517 -6.3361,-22.84314 -0.44267,-5.88041 4.8777,-9.60102 6.79089,-14.68489 0.90045,-2.39261 0.14074,-4.92844 0.94299,-7.34245 5.62827,-16.93428 14.4556,-31.46471 16.83512,-49.76545 0.80503,-6.19189 1.86271,-18.33499 -7.09204,-18.59909 -8.24135,-0.24301 -15.65759,8.59746 -20.04651,14.51996 -13.02742,17.57962 -20.89468,39.50227 -26.83264,60.37119 -2.12071,7.45309 -2.01735,16.68841 -5.03215,23.65899 -6.30728,14.5836 -17.26606,27.41163 -24.51454,41.60713 -2.14039,4.1918 -1.87463,8.97532 -4.00608,13.0533 -28.52758,54.5811 -65.32911,105.6685 -91.35929,161.53371 M 254.52138,727.40917 c -6.63048,-2.03659 -0.79549,-10.41226 1.04277,-14.68488 5.95426,-13.83898 13.20373,-29.45681 9.54153,-44.87049 -19.35279,10.80912 -28.60451,35.37953 -34.98633,55.47622 -2.51429,7.91768 -3.28513,26.1953 -12.2359,28.55396 1.06542,-24.49574 14.41485,-53.3542 27.68517,-73.42443 4.11124,-6.21769 12.84773,-19.49062 21.96448,-17.65362 7.24311,1.45947 4.51971,12.72181 3.72919,17.65362 -2.84266,17.73516 -9.23999,32.85138 -16.74091,48.94962 m 8.95594,-56.29207 c 4.30703,18.13603 -10.33701,47.30613 -20.1445,62.00285 -4.75804,7.12993 -7.8927,14.65152 -17.30761,14.6849 4.75327,-24.55547 14.18786,-63.21287 37.45211,-76.68775 m -396.50389,28.55396 -3.2567,3.2633 4.07088,-2.44749 -0.81418,-0.81581 m 381.03454,28.55393 c 7.93802,2.20021 7.28247,11.84244 -0.84558,14.10389 -5.57619,1.55139 -4.23467,-4.88002 -2.65621,-7.57728 1.26837,-2.16743 2.50713,-4.21665 3.50179,-6.52661 m -0.81417,17.13237 c 0.1618,7.61989 5.25378,12.49514 6.75909,19.57985 1.51784,7.14306 -6.65633,23.77181 -12.45833,27.7381 -1.98972,-6.87261 -12.72011,-5.01241 -17.8761,-2.20006 -6.0932,3.32345 -10.95719,17.24683 -14.07833,23.41154 -1.31608,2.59921 -3.36027,7.54004 -7.12862,6.31771 -4.32094,-1.40186 -11.98644,-11.50772 -11.82444,-16.10756 0.17174,-4.87448 4.68867,-10.61644 7.10536,-14.68498 6.40587,-10.78396 12.46668,-27.20656 21.96944,-35.46194 6.52117,-5.66516 13.56391,-3.3832 19.39016,-11.04015 l 8.14177,2.44749 m -5.69924,48.13378 c -2.20161,7.65752 -9.44572,24.4114 -16.28353,28.55392 l 14.65518,-28.55392 h 1.62835 m -54.32937,26.17698 c -4.61294,2.25763 -8.61823,10.69674 -9.98241,15.42702 -0.79211,2.74699 0.6152,6.06393 3.98998,4.92521 3.91822,-1.3219 9.34116,-11.67025 10.15812,-15.52714 0.54524,-2.57425 -0.94437,-6.40177 -4.16569,-4.82509 m 2.22208,0.74526 c -0.0718,6.46171 -4.18159,15.25465 -9.77011,18.76406 -1.30634,-6.28522 3.40022,-16.88677 9.77011,-18.76406 m -591.09204,34.26478 -7.32759,0.81582 c -2.38906,-4.7465 -6.75194,-4.3871 -11.39847,-3.13365 -8.94311,2.41264 -15.65729,7.13327 -25.23946,7.21275 l 8.14176,-19.5798 25.23947,8.71658 10.58429,5.9683 m 575.62269,-3.26326 c -3.36583,0.94662 -19.62232,13.59745 -13.34903,17.7542 6.11765,4.05367 13.95211,-13.30101 13.34903,-17.7542 m -591.90622,39.97545 h -1.62835 l 4.88506,-35.89637 -7.32759,0.81585 c 2.16892,-3.36513 10.45847,-4.9622 10.39834,0.85162 -0.11827,11.43164 -4.8948,22.93036 -6.32746,34.2289 m 590.27787,-36.71219 c -1.68242,5.72957 -5.58693,11.8729 -11.39847,13.86903 0.67404,-6.06651 6.03974,-11.36499 11.39847,-13.86903 m -595.16292,0.81582 -3.25671,2.44752 3.25671,-2.44752 m 35.00958,3.26336 c -1.84979,7.78482 0.51969,22.65133 -6.68744,28.0616 -4.36805,3.27914 -16.21127,2.66788 -21.80873,3.75566 1.57329,-8.12891 2.27436,-24.89867 7.31814,-31.39801 3.62384,-4.6697 16.79299,-2.72249 21.17803,-0.41925 m -100.95787,45.68628 c -16.1577,-3.85449 -34.07704,-0.82224 -50.47894,-0.81583 -4.29072,0 -14.84212,3.01059 -18.04883,-0.60555 -4.40323,-4.96552 5.77656,-19.3287 8.08024,-23.86927 2.23889,-4.4129 5.15847,-12.6589 9.46291,-15.35469 3.59453,-2.25119 10.26805,-0.91642 14.34668,-0.96497 9.72112,-0.11583 19.60305,-1.01986 29.31035,-1.70152 5.64418,-0.39649 19.03028,-5.04324 23.10792,0.30022 7.50321,9.83262 -11.43872,18.50513 -14.96178,24.25078 -3.82162,6.23243 -1.35693,12.15495 -0.81855,18.76083 m 65.13411,-44.63696 c 13.54711,-1.63993 3.0954,10.05951 2.1227,15.27915 -1.01225,5.43231 3.33463,10.21691 -1.30415,16.05782 -2.83918,3.57485 -9.68743,4.42456 -13.84537,5.61375 -11.83369,3.38459 -25.20657,11.23953 -37.45212,11.73266 -13.74966,0.55372 -18.57628,-17.05684 -8.87931,-25.69237 14.76649,-13.14985 40.08318,-20.65777 59.35825,-22.99101 m 30.12452,29.9521 c 5.98627,-9.22329 7.3265,-19.27795 7.32759,-30.18568 5.00582,0.22927 16.91702,2.21246 20.67672,5.65983 3.99903,3.66691 -1.03879,18.47779 -4.67018,21.26691 -5.80389,4.45777 -16.4502,3.25894 -23.33413,3.25894 m -51.29311,-28.55401 c -3.50755,4.63785 -20.97617,10.36927 -26.86782,11.42162 l 2.92187,-8.95143 23.94595,-2.47019 m -169.07726,7.88642 0.27133,0.54381 -0.27133,-0.54381 m 212.22861,2.71937 3.25671,5.71086 c 0.73615,-3.26556 -0.1467,-4.56516 -3.25671,-5.71086 m -167.72033,14.68486 0.81418,0.81585 -0.81418,-0.81585 m 150.62263,5.71087 c -1.62965,5.55657 -3.35182,6.40113 -8.95594,5.71076 l 8.95594,-5.71076 m -154.69351,1.63158 0.81417,0.81583 -0.81417,-0.81583 m -7.32759,13.86904 0.81418,0.81583 -0.81418,-0.81583 m -4.07088,7.34243 0.81417,0.81584 -0.81417,-0.81584 m -0.81418,1.63168 0.81418,0.81583 -0.81418,-0.81583 m -1.62835,3.26334 0.81418,0.81584 -0.81418,-0.81584 m -0.81418,1.63168 0.81418,0.81584 -0.81418,-0.81584 m -0.81417,1.63158 0.81417,0.81593 -0.81417,-0.81593 m -1.62836,3.26335 0.81418,0.81583 -0.81418,-0.81583 m -0.81417,1.63168 -0.81418,1.63165 0.81418,-1.63165 m 657.04032,0.81582 -2.44253,3.26327 2.44253,-3.26327 m -658.66868,1.63159 0.81418,0.81592 -0.81418,-0.81592 m 655.411974,2.44751 -2.442529,6.52659 h 0.814176 l 1.628353,-6.52659 m -657.040324,0.81584 -1.62835,4.07909 h 0.81418 l 0.81417,-4.07909 m -2.44253,4.89501 0.81418,0.81574 -0.81418,-0.81574 m -0.81417,1.63158 -0.81418,2.44751 h 0.81418 v -2.44751 m -1.62836,3.26335 0.81418,0.81584 -0.81418,-0.81584 m -0.81417,1.63157 0.81417,0.81594 -0.81417,-0.81594 m -0.81418,1.63168 -3.2567,5.71076 3.2567,-5.71076 m -4.07088,6.5267 -0.81418,1.63159 0.81418,-1.63159 m 11.39847,0 -11.39847,8.97401 11.39847,-8.97401 m -13.02682,2.44741 -0.81418,1.63168 0.81418,-1.63168 m -1.62836,2.44751 -1.62835,2.4475 1.62835,-2.4475 m -3.2567,4.07909 -0.81418,1.63168 0.81418,-1.63168 m 5.69923,0.81585 -1.62835,2.4475 1.62835,-2.4475 m -8.14176,2.4475 -1.62835,2.4475 1.62835,-2.4475 m 771.8392,4.07909 -10.5843,3.26335 c 1.76153,-4.39097 6.52196,-3.26335 10.5843,-3.26335 m -799.5212,59.55547 0.81418,0.8157 -0.81418,-0.8157 m -0.81417,1.6316 0.81417,0.8159 z"
     id="path1"
     transform="translate(713.53431,217.25227)" /></svg>
