<?xml version="1.0" encoding="utf-8" ?>
<svg xmlns="http://www.w3.org/2000/svg" xmlns:xlink="http://www.w3.org/1999/xlink" width="757" height="1460">
	<path fill="#850E0F" d="M346.255 328.734C356.456 324.636 366.594 324.513 376.98 328.046C388.492 333.415 396.405 340.864 400.708 353.054C400.864 353.497 400.977 353.927 401.09 354.381C402.934 362.27 402.9 369.211 401.03 377.06C396.48 389.865 389.073 397.047 377.126 403.089C366.843 406.228 358.18 406.272 347.866 403.005Q345.896 402.175 344.016 401.159C332.948 395.158 326.859 386.238 323.305 374.432C322.057 367.099 322.624 360.344 324.037 353.096C328.995 341.676 335.271 334.713 346.255 328.734ZM356.77 338.795C348.752 341.474 342.397 345.308 338.405 353.118Q338.094 353.728 337.815 354.352Q337.535 354.977 337.287 355.615Q337.039 356.253 336.823 356.902Q336.607 357.552 336.424 358.211Q336.241 358.87 336.091 359.538Q335.941 360.206 335.825 360.881Q335.709 361.555 335.626 362.234Q335.544 362.914 335.496 363.596Q335.447 364.279 335.433 364.963Q335.419 365.648 335.439 366.332Q335.46 367.016 335.514 367.698Q335.569 368.38 335.657 369.059Q335.746 369.738 335.868 370.411Q335.99 371.084 336.146 371.751Q336.302 372.417 336.491 373.075Q336.68 373.733 336.902 374.38Q337.118 375.018 337.366 375.644Q337.614 376.27 337.892 376.883Q338.171 377.496 338.479 378.094Q338.788 378.693 339.126 379.275Q339.464 379.857 339.831 380.422Q340.198 380.986 340.592 381.532Q340.986 382.078 341.407 382.603Q341.828 383.129 342.275 383.633Q342.721 384.136 343.193 384.617Q343.664 385.098 344.158 385.555Q344.653 386.012 345.169 386.444Q345.686 386.876 346.224 387.281Q346.761 387.687 347.318 388.065Q347.875 388.443 348.45 388.793Q349.025 389.143 349.617 389.464Q350.209 389.785 350.816 390.076C356.647 392.84 362.456 393.034 368.711 391.98C376.498 389.499 382.753 385.39 386.63 377.978Q386.945 377.374 387.229 376.755Q387.514 376.136 387.766 375.503Q388.019 374.871 388.239 374.226Q388.459 373.581 388.647 372.926Q388.834 372.271 388.988 371.608Q389.142 370.944 389.262 370.274Q389.383 369.603 389.469 368.927Q389.555 368.251 389.607 367.572Q389.659 366.893 389.676 366.212Q389.693 365.531 389.676 364.85Q389.659 364.169 389.608 363.49Q389.556 362.81 389.471 362.134Q389.385 361.459 389.265 360.788Q389.145 360.117 388.991 359.454Q388.838 358.79 388.651 358.135Q388.464 357.48 388.244 356.835Q388.029 356.203 387.783 355.582Q387.538 354.961 387.262 354.353Q386.986 353.745 386.68 353.151Q386.375 352.557 386.041 351.979Q385.707 351.401 385.345 350.84Q384.983 350.279 384.593 349.736Q384.204 349.193 383.789 348.671Q383.374 348.148 382.933 347.646Q382.493 347.144 382.028 346.664Q381.563 346.185 381.076 345.728Q380.588 345.272 380.079 344.84Q379.57 344.409 379.04 344.002Q378.51 343.596 377.961 343.216Q377.412 342.836 376.845 342.484Q376.277 342.131 375.694 341.807Q375.11 341.483 374.511 341.188C368.647 338.326 363.089 338.245 356.77 338.795Z"/>
	<path fill="#850E0F" d="M446.184 367.696C463.322 361.981 479.657 361.538 496.826 367.398C515.587 375.104 530.36 388.013 538.366 406.947Q540.723 412.584 542.14 418.528C544.226 428.967 545.047 440.872 542.207 451.262C537.556 470.29 526.254 486.323 509.464 496.575C504.043 499.885 497.957 502.66 491.836 504.379C479.65 507.318 467.784 507.77 455.48 505.163Q450.888 504.095 446.478 502.426Q442.068 500.758 437.919 498.519C418.813 488.228 407.754 471.682 401.687 451.269C400.177 441.852 399.916 433.391 400.823 423.886C401.787 418.956 402.913 414.182 404.688 409.472C412.273 389.339 426.959 376.413 446.184 367.696ZM467.334 384.464C453.194 386.255 440.847 392.388 431.986 403.786Q431.218 404.779 430.5 405.808Q429.783 406.837 429.116 407.9Q428.45 408.963 427.836 410.057Q427.223 411.152 426.664 412.275Q426.105 413.399 425.602 414.548Q425.098 415.697 424.652 416.87Q424.206 418.043 423.819 419.236Q423.431 420.43 423.102 421.641Q422.773 422.852 422.504 424.077Q422.235 425.303 422.027 426.54Q421.818 427.777 421.671 429.023Q421.523 430.27 421.438 431.521Q421.352 432.773 421.327 434.028Q421.303 435.282 421.34 436.536Q421.377 437.791 421.476 439.042Q421.575 440.292 421.735 441.537Q421.898 442.784 422.123 444.021Q422.348 445.258 422.634 446.482Q422.919 447.707 423.265 448.915Q423.611 450.124 424.016 451.314Q424.42 452.505 424.884 453.674Q425.347 454.843 425.867 455.987Q426.387 457.132 426.964 458.249Q427.54 459.367 428.17 460.454Q428.801 461.542 429.485 462.597Q430.168 463.652 430.903 464.672Q431.638 465.693 432.422 466.675Q433.206 467.658 434.038 468.601Q434.87 469.543 435.747 470.444Q436.624 471.344 437.545 472.201Q438.466 473.057 439.428 473.866Q440.389 474.676 441.39 475.437C452.446 483.86 464.163 485.999 477.756 485.484C492.646 482.775 504.885 476.517 513.699 463.824Q514.416 462.785 515.08 461.712Q515.745 460.64 516.355 459.535Q516.965 458.431 517.52 457.297Q518.075 456.164 518.573 455.004Q519.072 453.845 519.512 452.662Q519.952 451.479 520.333 450.276Q520.714 449.073 521.035 447.852Q521.356 446.632 521.616 445.397Q521.876 444.162 522.074 442.916Q522.273 441.67 522.41 440.415Q522.546 439.16 522.62 437.901Q522.695 436.641 522.706 435.379Q522.718 434.117 522.668 432.856Q522.617 431.595 522.504 430.338Q522.391 429.081 522.215 427.831Q522.04 426.582 521.803 425.342Q521.569 424.12 521.276 422.91Q520.982 421.701 520.63 420.507Q520.278 419.313 519.867 418.138Q519.456 416.963 518.989 415.81Q518.521 414.657 517.997 413.528Q517.473 412.399 516.895 411.297Q516.316 410.195 515.684 409.123Q515.052 408.051 514.368 407.011Q513.685 405.971 512.951 404.966Q512.217 403.961 511.434 402.993Q510.652 402.025 509.823 401.097Q508.994 400.169 508.12 399.282Q507.247 398.396 506.331 397.553Q505.415 396.711 504.458 395.915Q503.502 395.118 502.508 394.369Q501.514 393.621 500.484 392.922C490.618 386.259 479.149 383.611 467.334 384.464Z"/>
	<path fill="#850E0F" d="M28.9354 0L65.557 0L190.126 0L214.01 0L264.12 0L284.361 0L310.494 0L336.683 0L355.229 0L368.668 0L383.015 0L403.755 0L488.873 0L506.671 0L757 0L757 51.2189L757 71.2901L757 106.098L757 151.209L757 268.043L757 313.532L757 344.608L757 365.131L757 508.376L757 592.808L757 650.612L757 678.206L757 803.347L757 831.139C747.252 844.351 715.055 865.462 698.749 867.92C697.952 868.04 697.183 868.135 696.394 867.928L694.273 868.341C692 870.198 688.166 871.287 685.217 870.982C684.616 870.92 684.564 870.877 684.071 870.707C683.005 871.243 681.904 871.186 680.729 871.267C678.846 872.471 676.548 873.008 674.332 872.418C674.099 872.356 673.87 872.278 673.638 872.208C670.479 873.839 667.546 873.506 664.193 872.79C660.632 874.211 655.809 873.805 652.235 872.652C649.753 873.323 648.74 873.078 646.465 872.218C646.076 872.33 646.004 872.358 645.558 872.444C632.457 874.966 599.423 859.834 588.368 852.694C556.903 832.371 537.522 801.687 529.671 765.416C526.874 748.948 526.887 732.893 529.807 716.455C531.38 708.581 533.396 700.956 536.29 693.454Q537.336 690.767 538.496 688.127Q539.657 685.487 540.929 682.899Q542.201 680.312 543.583 677.781Q544.965 675.25 546.455 672.781Q547.944 670.312 549.537 667.909Q551.131 665.505 552.826 663.173Q554.521 660.84 556.315 658.582Q558.108 656.324 559.997 654.145Q561.885 651.966 563.865 649.87Q565.846 647.774 567.914 645.765Q569.982 643.756 572.134 641.837Q574.287 639.919 576.519 638.094Q578.752 636.269 581.061 634.542Q583.369 632.814 585.75 631.188Q588.131 629.561 590.579 628.037Q593.027 626.514 595.538 625.097C602.137 621.401 609.536 618.687 616.46 615.633C639.386 609.16 661.039 606.418 684.7 610.813C680.493 608.954 676.383 606.872 672.253 604.847C669.983 603.067 667.673 601.286 665.559 599.322Q664.434 598.27 663.362 597.165Q662.29 596.059 661.272 594.903Q660.255 593.747 659.295 592.542Q658.336 591.338 657.436 590.088Q656.536 588.838 655.698 587.546Q654.86 586.254 654.085 584.922Q653.311 583.591 652.603 582.224Q651.894 580.856 651.253 579.456Q650.612 578.055 650.04 576.625Q649.468 575.196 648.966 573.739Q648.464 572.283 648.034 570.805Q647.603 569.326 647.245 567.828Q646.888 566.33 646.603 564.816Q646.318 563.303 646.108 561.777Q645.897 560.251 645.761 558.717Q645.625 557.183 645.564 555.644Q645.493 554.086 645.5 552.527Q645.507 550.967 645.592 549.41Q645.676 547.853 645.838 546.302Q646 544.751 646.239 543.21Q646.478 541.669 646.793 540.142Q647.109 538.615 647.5 537.106Q647.891 535.596 648.356 534.108Q648.822 532.62 649.361 531.157Q649.901 529.693 650.512 528.259Q651.123 526.824 651.806 525.422Q652.488 524.02 653.239 522.653Q653.99 521.287 654.808 519.959Q655.626 518.632 656.509 517.347Q657.393 516.062 658.339 514.822Q659.285 513.583 660.292 512.392Q661.298 511.201 662.363 510.062C675.233 496.382 691.723 490.948 710.104 490.382C702.647 484.201 696.003 476.679 688.782 470.161Q668.138 451.716 645.823 435.332C603.961 404.183 559.313 376.724 514.994 349.259Q444.058 305.894 374.269 260.706Q306.701 217.006 241.581 169.735Q176.461 122.464 113.978 71.7583C88.2888 50.8677 63.3689 29.1189 37.9094 7.96894C36.3939 5.93411 33.4591 4.01827 31.49 2.34091L28.9354 0ZM757 803.347L757 678.206C737.175 650.989 711.789 632.367 677.94 626.993Q676.539 626.772 675.133 626.585Q673.726 626.398 672.316 626.246Q670.906 626.094 669.492 625.977Q668.078 625.86 666.662 625.778Q665.246 625.696 663.828 625.649Q662.411 625.601 660.992 625.589Q659.574 625.577 658.155 625.6Q656.737 625.622 655.32 625.68Q653.902 625.738 652.487 625.831Q651.071 625.923 649.659 626.051Q648.246 626.178 646.837 626.341Q645.427 626.503 644.023 626.7Q642.618 626.898 641.218 627.129Q639.819 627.361 638.426 627.627Q637.032 627.893 635.646 628.194Q634.26 628.494 632.881 628.829Q631.503 629.163 630.133 629.532Q628.763 629.9 627.403 630.303Q626.042 630.705 624.692 631.14Q623.342 631.576 622.003 632.045Q620.665 632.513 619.338 633.015Q618.011 633.517 616.697 634.051Q615.383 634.585 614.082 635.152Q612.782 635.718 611.495 636.317Q610.209 636.915 608.938 637.545Q607.667 638.175 606.412 638.836Q605.157 639.497 603.919 640.189Q602.68 640.881 601.459 641.603Q600.239 642.325 599.036 643.078Q597.833 643.83 596.649 644.611Q595.465 645.393 594.301 646.203Q593.137 647.014 591.993 647.853Q590.842 648.695 589.712 649.566Q588.582 650.436 587.474 651.334Q586.366 652.232 585.28 653.157Q584.195 654.083 583.132 655.034Q582.07 655.986 581.031 656.963Q579.992 657.941 578.978 658.944Q577.964 659.947 576.975 660.975Q575.986 662.002 575.022 663.054Q574.059 664.106 573.122 665.181Q572.184 666.256 571.274 667.354Q570.364 668.452 569.481 669.573Q568.598 670.693 567.743 671.834Q566.888 672.976 566.061 674.138Q565.234 675.301 564.437 676.483Q563.639 677.666 562.871 678.867Q562.102 680.069 561.364 681.29Q560.625 682.51 559.917 683.748Q559.209 684.987 558.532 686.242Q557.855 687.497 557.209 688.769Q556.563 690.041 555.948 691.328Q555.334 692.615 554.751 693.917Q554.169 695.219 553.619 696.535Q553.068 697.851 552.551 699.18Q552.033 700.51 551.549 701.851Q551.064 703.193 550.613 704.546Q550.161 705.899 549.744 707.263Q549.326 708.627 548.942 710Q548.558 711.374 548.208 712.757Q547.858 714.14 547.542 715.531Q547.226 716.922 546.945 718.32Q546.663 719.719 546.417 721.124Q546.17 722.528 545.958 723.939Q545.747 725.33 545.571 726.725Q545.394 728.12 545.252 729.52Q545.11 730.919 545.002 732.322Q544.895 733.724 544.822 735.129Q544.748 736.533 544.71 737.939Q544.671 739.345 544.667 740.752Q544.663 742.158 544.693 743.565Q544.724 744.971 544.789 746.376Q544.854 747.781 544.953 749.184Q545.053 750.587 545.187 751.987Q545.32 753.387 545.489 754.784Q545.657 756.18 545.86 757.572Q546.062 758.964 546.299 760.35Q546.536 761.737 546.806 763.117Q547.077 764.497 547.382 765.87Q547.686 767.244 548.024 768.609Q548.363 769.974 548.734 771.331Q549.106 772.687 549.511 774.034Q549.916 775.381 550.353 776.718Q550.791 778.054 551.262 779.38Q551.732 780.705 552.235 782.019Q552.738 783.332 553.273 784.633Q553.808 785.934 554.375 787.221Q554.942 788.508 555.541 789.781Q556.139 791.054 556.769 792.312Q557.398 793.57 558.058 794.812Q558.718 796.053 559.409 797.279Q560.099 798.504 560.82 799.712Q561.54 800.92 562.29 802.11Q563.04 803.3 563.819 804.471Q564.598 805.642 565.405 806.794Q566.213 807.946 567.048 809.077Q567.888 810.226 568.756 811.353Q569.625 812.481 570.52 813.587Q571.416 814.692 572.339 815.776Q573.262 816.859 574.211 817.919Q575.16 818.979 576.135 820.016Q577.11 821.052 578.111 822.064Q579.111 823.077 580.136 824.064Q581.161 825.051 582.21 826.012Q583.26 826.974 584.332 827.909Q585.405 828.844 586.5 829.753Q587.595 830.661 588.712 831.543Q589.83 832.424 590.969 833.277Q592.107 834.131 593.267 834.956Q594.426 835.781 595.606 836.577Q596.785 837.373 597.984 838.14Q599.183 838.906 600.4 839.643Q601.617 840.38 602.852 841.087Q604.088 841.794 605.34 842.47Q606.592 843.146 607.86 843.791Q609.129 844.435 610.413 845.049Q611.697 845.662 612.996 846.244Q614.295 846.825 615.607 847.374Q616.92 847.924 618.246 848.44Q619.572 848.957 620.91 849.441Q622.248 849.925 623.598 850.375Q624.948 850.826 626.308 851.243Q627.669 851.66 629.039 852.044Q630.409 852.427 631.789 852.777Q633.168 853.126 634.556 853.442Q635.943 853.757 637.338 854.038Q638.733 854.319 640.134 854.566Q641.536 854.812 642.943 855.024Q644.349 855.231 645.76 855.404Q647.17 855.576 648.585 855.714Q650 855.852 651.417 855.955Q652.834 856.058 654.254 856.126Q655.674 856.195 657.094 856.228Q658.515 856.262 659.936 856.26Q661.358 856.258 662.778 856.222Q664.199 856.186 665.619 856.114Q667.038 856.043 668.455 855.937Q669.873 855.831 671.287 855.69Q672.701 855.549 674.111 855.373Q675.522 855.197 676.927 854.987Q678.333 854.777 679.733 854.532Q681.133 854.288 682.526 854.009Q683.92 853.73 685.306 853.417Q686.693 853.104 688.071 852.756Q689.449 852.409 690.818 852.029Q692.187 851.648 693.547 851.233Q694.906 850.819 696.255 850.372Q697.604 849.924 698.942 849.443Q700.279 848.963 701.605 848.45Q702.93 847.936 704.242 847.391Q705.555 846.845 706.853 846.267Q708.152 845.689 709.435 845.08Q710.719 844.471 711.988 843.83Q713.257 843.189 714.509 842.517Q715.762 841.845 716.997 841.143Q718.233 840.441 719.451 839.708Q720.669 838.976 721.868 838.214Q723.068 837.451 724.249 836.66Q725.429 835.869 726.59 835.049Q727.751 834.228 728.891 833.38C740.081 825.036 749.21 814.892 757 803.347ZM588.111 130.956C597.162 152.557 600.793 178.299 593.492 201.035C588.286 220.475 577.47 237.041 562.851 250.726C574.637 277.343 593.776 298.453 620.819 310.073C636.941 316.905 655.369 320.708 672.904 318.697L675.638 318.616L683.8 317.398L693.241 315.226C719.889 309.066 741.852 290.029 757 268.043L757 151.209C739.657 125.661 715.518 108.033 684.899 102.102Q683.579 101.85 682.253 101.631Q680.927 101.412 679.596 101.225Q678.265 101.039 676.93 100.885Q675.595 100.731 674.256 100.61Q672.917 100.489 671.576 100.401Q670.235 100.313 668.892 100.258Q667.55 100.202 666.206 100.18Q664.862 100.158 663.518 100.169Q662.174 100.18 660.831 100.223Q659.488 100.267 658.146 100.344Q656.804 100.421 655.464 100.53Q654.125 100.64 652.788 100.782Q651.452 100.925 650.12 101.1Q648.787 101.276 647.459 101.484Q646.131 101.691 644.809 101.932Q643.487 102.172 642.171 102.445Q640.855 102.718 639.546 103.023Q638.237 103.328 636.936 103.665Q635.635 104.003 634.343 104.372Q633.05 104.741 631.767 105.141Q630.484 105.542 629.212 105.974Q627.939 106.406 626.677 106.869Q625.416 107.332 624.166 107.826Q622.916 108.32 621.678 108.844Q620.441 109.368 619.217 109.923Q617.992 110.478 616.782 111.062Q615.572 111.647 614.376 112.261Q613.181 112.875 612.001 113.518Q610.821 114.162 609.657 114.834Q608.493 115.506 607.346 116.206Q606.198 116.906 605.069 117.635Q603.939 118.363 602.828 119.119C597.595 122.689 592.833 126.745 588.111 130.956ZM485.332 82.9735C460.165 85.9088 438.044 97.1334 422.195 117.197Q421.504 118.073 420.836 118.966Q420.167 119.859 419.52 120.769Q418.873 121.678 418.249 122.602Q417.624 123.527 417.023 124.467Q416.421 125.407 415.843 126.361Q415.264 127.315 414.71 128.283Q414.155 129.251 413.624 130.233Q413.093 131.214 412.586 132.208Q412.08 133.202 411.597 134.208Q411.115 135.215 410.658 136.232Q410.2 137.25 409.768 138.279Q409.335 139.307 408.928 140.346Q408.521 141.385 408.14 142.434Q407.758 143.482 407.403 144.54Q407.047 145.597 406.717 146.663Q406.388 147.729 406.084 148.803Q405.781 149.877 405.504 150.958Q405.227 152.038 404.976 153.126Q404.725 154.213 404.502 155.306Q404.278 156.399 404.081 157.498Q403.884 158.596 403.714 159.699Q403.544 160.801 403.401 161.908Q403.258 163.015 403.142 164.124Q403.026 165.234 402.938 166.346Q402.849 167.459 402.788 168.573Q402.726 169.687 402.692 170.802Q402.658 171.918 402.651 173.033Q402.645 174.149 402.665 175.265Q402.686 176.38 402.734 177.495Q402.782 178.61 402.857 179.723Q402.932 180.837 403.035 181.948Q403.137 183.059 403.267 184.167Q403.402 185.283 403.564 186.395Q403.726 187.506 403.915 188.614Q404.104 189.722 404.321 190.824Q404.538 191.927 404.781 193.024Q405.025 194.121 405.295 195.211Q405.566 196.302 405.863 197.386Q406.161 198.469 406.484 199.545Q406.808 200.621 407.159 201.689Q407.509 202.756 407.885 203.815Q408.262 204.874 408.664 205.923Q409.066 206.972 409.494 208.011Q409.922 209.05 410.376 210.078Q410.829 211.106 411.308 212.123Q411.787 213.14 412.29 214.144Q412.794 215.149 413.322 216.14Q413.85 217.132 414.402 218.111Q414.954 219.089 415.531 220.054Q416.107 221.019 416.707 221.969Q417.306 222.919 417.929 223.854Q418.552 224.789 419.198 225.709Q419.844 226.628 420.512 227.531Q421.18 228.435 421.871 229.321Q422.561 230.208 423.273 231.077Q423.985 231.947 424.718 232.798Q425.451 233.65 426.205 234.483Q426.958 235.316 427.732 236.131Q428.506 236.945 429.3 237.741Q430.094 238.536 430.907 239.311Q431.721 240.087 432.553 240.842Q433.385 241.597 434.235 242.331Q435.085 243.066 435.953 243.779Q436.822 244.492 437.707 245.184C456.977 260.236 479.262 265.613 503.324 263.608C529.179 259.676 551.164 248.458 566.893 226.993Q567.55 226.096 568.185 225.184Q568.82 224.271 569.433 223.344Q570.045 222.416 570.635 221.473Q571.224 220.531 571.791 219.574Q572.357 218.617 572.899 217.647Q573.442 216.677 573.961 215.694Q574.479 214.71 574.974 213.715Q575.468 212.719 575.938 211.711Q576.408 210.704 576.853 209.685Q577.298 208.666 577.717 207.637Q578.137 206.607 578.532 205.568Q578.926 204.529 579.295 203.48Q579.664 202.431 580.007 201.374Q580.35 200.316 580.667 199.25Q580.984 198.185 581.275 197.112Q581.565 196.039 581.83 194.959Q582.094 193.879 582.332 192.793Q582.57 191.707 582.781 190.616Q582.992 189.524 583.176 188.428Q583.36 187.331 583.518 186.231Q583.675 185.13 583.805 184.026Q583.936 182.922 584.039 181.815Q584.142 180.708 584.218 179.599Q584.294 178.49 584.343 177.379Q584.391 176.269 584.413 175.157Q584.435 174.046 584.429 172.934Q584.423 171.822 584.39 170.711Q584.357 169.6 584.297 168.49Q584.236 167.379 584.149 166.271Q584.061 165.163 583.947 164.057Q583.832 162.951 583.69 161.849Q583.549 160.746 583.38 159.647C579.802 136.555 566.546 114.283 547.609 100.517C529.872 87.6234 507.277 80.7776 485.332 82.9735ZM506.671 0Q506.557 35.3843 507.458 70.7568C518.255 72.5513 528.11 75.2622 538.046 79.8989C574.116 45.3222 619.641 25.7958 669.991 26.9508C701.586 27.6756 729.261 36.5726 757 51.2189L757 0L506.671 0ZM65.557 0C127.247 57.5876 199.679 109.843 269.153 157.713C235.311 108.301 210.909 55.9904 190.126 0L65.557 0ZM403.755 0C396.978 47.3007 390.066 96.3523 393.825 144.263C404.043 115.631 421.208 93.0057 449.216 79.787C462.104 73.7044 475.009 71.1587 489.086 69.7536C488.849 46.5784 488.065 23.1505 488.873 0L403.755 0ZM757 365.131C712.871 388.38 667.545 396.084 618.718 383.248C658.258 407.672 702.061 443.918 733.168 478.692C741.659 488.185 748.757 498.73 757 508.376L757 365.131ZM284.361 0C284.512 3.98741 284.427 8.17067 284.946 12.1188C290.508 83.7175 326.032 147.014 366.808 204.369C348.643 141.87 341.084 76.095 337.281 11.292L337.09 5.11429L336.683 0L310.494 0L284.361 0ZM701.18 508.531C688.103 511.615 677.241 517.651 669.977 529.302Q669.391 530.234 668.851 531.195Q668.312 532.155 667.82 533.141Q667.329 534.127 666.887 535.136Q666.446 536.145 666.054 537.175Q665.663 538.204 665.323 539.252Q664.984 540.3 664.697 541.364Q664.409 542.427 664.175 543.503Q663.941 544.58 663.76 545.666Q663.58 546.753 663.453 547.847Q663.327 548.942 663.255 550.041Q663.182 551.14 663.165 552.241Q663.147 553.343 663.185 554.443Q663.222 555.544 663.313 556.642Q663.405 557.74 663.551 558.832Q663.697 559.924 663.897 561.007Q664.097 562.09 664.35 563.162Q664.612 564.255 664.929 565.335Q665.245 566.414 665.614 567.476Q665.984 568.539 666.405 569.581Q666.827 570.624 667.299 571.645Q667.772 572.665 668.294 573.661Q668.817 574.657 669.388 575.626Q669.959 576.594 670.577 577.534Q671.195 578.473 671.859 579.381Q672.523 580.289 673.232 581.162Q673.94 582.036 674.69 582.873Q675.441 583.711 676.232 584.51Q677.023 585.31 677.852 586.069Q678.682 586.828 679.548 587.545Q680.414 588.263 681.315 588.936Q682.215 589.61 683.148 590.238Q684.081 590.866 685.044 591.447C694.49 597.142 704.431 598.625 715.246 597.359C728.116 594.351 739.013 587.971 746.166 576.518C751.334 568.244 754.412 557.108 752.214 547.469C749.897 537.307 736.848 518.699 728.041 513.25C720.082 508.327 710.292 507.409 701.18 508.531ZM214.01 0Q221.27 20.2338 229.612 40.0458Q237.954 59.8579 247.354 79.1903Q256.754 98.5228 267.185 117.319Q277.615 136.116 289.046 154.321C295.064 164.108 301.375 176.272 309.522 184.426C319.594 194.509 340.888 205.439 353.428 214.486Q350.988 211.71 348.606 208.885Q346.223 206.06 343.899 203.187Q341.575 200.314 339.31 197.394Q337.044 194.474 334.839 191.508Q332.634 188.543 330.49 185.533Q328.345 182.523 326.263 179.47Q324.181 176.417 322.161 173.322Q320.141 170.227 318.185 167.091Q316.229 163.956 314.337 160.781Q312.445 157.606 310.619 154.394Q308.792 151.181 307.032 147.932Q305.271 144.682 303.577 141.398Q301.883 138.113 300.256 134.795Q298.63 131.476 297.071 128.126Q295.513 124.775 294.023 121.393Q292.533 118.01 291.112 114.599Q289.692 111.187 288.341 107.747Q286.99 104.307 285.71 100.84Q284.43 97.3732 283.221 93.8809Q282.011 90.3886 280.874 86.8724Q279.736 83.3562 278.67 79.8175Q277.604 76.2788 276.611 72.719Q275.618 69.1593 274.697 65.5801Q273.777 62.0008 272.929 58.4035Q272.082 54.8062 271.308 51.1924Q270.535 47.5786 269.835 43.9497Q269.135 40.3208 268.509 36.6784Q267.884 33.036 267.332 29.3816Q266.781 25.7272 266.305 22.0623Q265.828 18.3975 265.426 14.7236Q265.025 11.0498 264.698 7.36847Q264.371 3.68718 264.12 0L214.01 0ZM537.738 267.346C534.872 268.568 532.018 269.864 529.111 270.983C533.549 286.68 538.984 308.621 548.417 321.795C556.508 333.095 574.03 344.436 586.065 351.197Q587.825 352.184 589.61 353.127Q591.394 354.07 593.201 354.969Q595.008 355.868 596.837 356.722Q598.666 357.576 600.515 358.384Q602.364 359.192 604.233 359.955Q606.102 360.717 607.989 361.433Q609.875 362.149 611.78 362.818Q613.684 363.487 615.604 364.109Q617.524 364.731 619.458 365.305Q621.393 365.88 623.342 366.406Q625.29 366.932 627.251 367.41Q629.212 367.888 631.184 368.318Q633.156 368.747 635.138 369.127Q637.12 369.508 639.111 369.839Q641.101 370.171 643.1 370.453Q645.098 370.735 647.103 370.967Q649.108 371.2 651.117 371.383Q653.127 371.566 655.141 371.699Q657.155 371.832 659.171 371.916Q661.188 371.999 663.206 372.033Q665.224 372.066 667.242 372.05Q669.26 372.034 671.277 371.967Q673.294 371.901 675.309 371.785Q677.324 371.669 679.335 371.503Q681.347 371.338 683.353 371.122Q685.36 370.907 687.361 370.642Q689.361 370.377 691.355 370.062Q693.349 369.748 695.334 369.385Q697.319 369.021 699.294 368.609Q701.27 368.196 703.235 367.735Q705.2 367.274 707.153 366.764Q709.105 366.255 711.045 365.697C727.569 360.994 742.413 353.564 757 344.608L757 313.532C725.919 338.971 690.402 352.146 649.88 348.02Q648.186 347.844 646.496 347.627Q644.807 347.409 643.123 347.15Q641.439 346.892 639.763 346.591Q638.086 346.291 636.417 345.95Q634.748 345.608 633.088 345.226Q631.428 344.844 629.778 344.421Q628.128 343.998 626.489 343.534Q624.85 343.071 623.223 342.567Q621.595 342.063 619.981 341.52Q618.367 340.976 616.766 340.393Q615.165 339.81 613.58 339.188Q611.994 338.566 610.424 337.905Q608.854 337.244 607.301 336.544Q605.748 335.845 604.212 335.107Q602.677 334.37 601.16 333.595Q599.643 332.82 598.145 332.008Q596.648 331.196 595.171 330.347Q593.694 329.498 592.238 328.614Q590.782 327.729 589.349 326.809Q587.915 325.888 586.505 324.933Q585.095 323.978 583.708 322.988Q582.322 321.999 580.96 320.975Q579.598 319.952 578.262 318.895Q576.926 317.839 575.616 316.749Q574.306 315.66 573.023 314.539Q571.741 313.418 570.486 312.266Q569.231 311.114 568.005 309.931Q566.779 308.748 565.583 307.536Q564.386 306.323 563.22 305.082Q562.053 303.84 560.918 302.57Q559.782 301.3 558.679 300.003Q557.575 298.705 556.503 297.381C548.988 288.153 542.899 278.052 537.738 267.346ZM553.087 88.6804C560.095 93.8951 566.269 99.4278 572.201 105.836Q573.446 104.719 574.719 103.633Q575.991 102.547 577.289 101.492Q578.587 100.438 579.911 99.4146Q581.234 98.3917 582.582 97.4012Q583.93 96.4108 585.302 95.4534Q586.673 94.496 588.068 93.5722Q589.463 92.6484 590.879 91.7588Q592.296 90.8692 593.733 90.0144Q595.171 89.1595 596.629 88.3398Q598.087 87.5201 599.565 86.7361Q601.042 85.9521 602.539 85.2042Q604.035 84.4564 605.549 83.7451Q607.063 83.0339 608.594 82.3596Q610.124 81.6854 611.671 81.0486Q613.218 80.4117 614.78 79.8127Q616.341 79.2137 617.917 78.6528Q619.493 78.0919 621.082 77.5695Q622.671 77.047 624.272 76.5634Q625.873 76.0798 627.486 75.6352Q629.099 75.1907 630.721 74.7854Q632.344 74.3802 633.976 74.0145Q635.609 73.6489 637.249 73.323Q638.89 72.9971 640.538 72.7113Q642.186 72.4254 643.841 72.1796Q645.495 71.9339 647.155 71.7284Q648.815 71.523 650.48 71.358Q652.144 71.1929 653.812 71.0684Q655.48 70.9439 657.151 70.86Q658.821 70.7761 660.493 70.7328Q662.165 70.6895 663.838 70.6869Q665.511 70.6842 667.183 70.7223Q668.855 70.7603 670.526 70.839C703.146 72.4115 732.336 84.9161 757 106.098L757 71.2901C718.656 46.924 674.713 37.8067 630.06 47.7329C600.885 54.2185 575.111 68.6608 553.087 88.6804ZM355.229 0L355.188 0.551616Q355.992 22.4333 357.869 44.249Q359.746 66.0648 362.692 87.7621Q365.637 109.459 369.645 130.986Q373.652 152.512 378.712 173.816C378.558 165.854 377.371 157.778 376.788 149.823Q375.388 130.072 375.191 110.272C374.75 73.048 378.888 36.8965 383.015 0L368.668 0L355.229 0ZM408.036 232.838C410.366 240.209 412.598 247.94 416.016 254.883L488.551 300.549C497.333 306.062 510.995 316.109 520.147 319.911C514.169 305.08 504.507 292.281 498.588 277.314C468.741 277.456 442.127 268.575 420.69 247.227C416.132 242.688 412.46 237.392 408.036 232.838ZM701.867 615.23C723.295 623.211 741.009 634.181 757 650.612L757 592.808C743.236 606.815 727.773 615.138 707.737 615.281Q704.802 615.303 701.867 615.23Z"/>
	<path fill="#850E0F" d="M485.804 110.669C501.529 109.924 515.421 112.262 528.69 121.239Q529.981 122.109 531.228 123.041Q532.474 123.973 533.673 124.965Q534.873 125.957 536.022 127.007Q537.171 128.057 538.267 129.163Q539.363 130.268 540.404 131.425Q541.444 132.583 542.427 133.791Q543.409 134.998 544.331 136.252Q545.253 137.507 546.112 138.805Q546.971 140.103 547.766 141.441Q548.56 142.78 549.288 144.156Q550.015 145.532 550.675 146.942Q551.334 148.353 551.923 149.794Q552.512 151.234 553.029 152.703Q553.547 154.171 553.992 155.662Q554.437 157.154 554.808 158.666Q555.179 160.178 555.475 161.706Q555.783 163.265 556.012 164.837Q556.242 166.409 556.393 167.991Q556.544 169.573 556.617 171.16Q556.689 172.747 556.683 174.336Q556.676 175.925 556.591 177.512Q556.505 179.098 556.341 180.679Q556.177 182.259 555.934 183.83Q555.692 185.4 555.371 186.956Q555.051 188.512 554.654 190.051Q554.256 191.589 553.783 193.106Q553.31 194.623 552.762 196.114Q552.214 197.606 551.592 199.068Q550.97 200.53 550.277 201.96Q549.583 203.389 548.82 204.783Q548.056 206.176 547.224 207.53Q546.392 208.883 545.494 210.194C534.729 225.85 519.422 233.879 501.114 237.309C484.693 238.386 469.99 235.806 456.346 226.137Q455.062 225.231 453.824 224.264Q452.586 223.296 451.397 222.268Q450.208 221.24 449.072 220.155Q447.936 219.07 446.854 217.93Q445.773 216.789 444.749 215.597Q443.725 214.405 442.761 213.164Q441.798 211.923 440.896 210.635Q439.995 209.348 439.159 208.018Q438.322 206.687 437.552 205.317Q436.782 203.947 436.081 202.541Q435.38 201.135 434.749 199.695Q434.118 198.256 433.559 196.787Q433 195.319 432.514 193.824Q432.029 192.33 431.617 190.813Q431.206 189.296 430.87 187.761Q430.534 186.226 430.274 184.676Q430.012 183.12 429.826 181.553Q429.641 179.986 429.533 178.411Q429.425 176.837 429.394 175.259Q429.363 173.682 429.41 172.104Q429.457 170.527 429.582 168.954Q429.706 167.381 429.908 165.815Q430.11 164.25 430.388 162.697Q430.667 161.144 431.021 159.606Q431.376 158.068 431.805 156.55Q432.235 155.032 432.738 153.536Q433.242 152.041 433.819 150.572Q434.396 149.103 435.044 147.664Q435.692 146.225 436.41 144.82Q437.128 143.415 437.914 142.047Q438.701 140.679 439.553 139.351Q440.406 138.023 441.323 136.739C452.214 121.632 467.694 113.578 485.804 110.669ZM486.405 127.774C472.98 130.5 461.825 136.663 454.139 148.32Q453.506 149.283 452.921 150.276Q452.336 151.27 451.8 152.291Q451.265 153.311 450.781 154.358Q450.296 155.404 449.864 156.472Q449.432 157.541 449.053 158.63Q448.674 159.718 448.349 160.824Q448.024 161.931 447.754 163.051Q447.485 164.172 447.27 165.305Q447.056 166.437 446.898 167.579Q446.74 168.721 446.638 169.869Q446.537 171.018 446.492 172.17Q446.447 173.322 446.459 174.474Q446.471 175.627 446.54 176.778Q446.609 177.928 446.734 179.074Q446.859 180.22 447.041 181.359Q447.223 182.497 447.461 183.625Q447.7 184.753 447.993 185.867Q448.287 186.982 448.635 188.081Q448.983 189.179 449.385 190.26Q449.786 191.34 450.24 192.4Q450.695 193.459 451.2 194.495Q451.706 195.531 452.261 196.541Q452.817 197.55 453.422 198.532Q454.026 199.513 454.678 200.464Q455.33 201.414 456.028 202.331Q456.726 203.249 457.468 204.131Q458.21 205.013 458.994 205.857Q459.779 206.702 460.604 207.507Q461.428 208.311 462.292 209.075Q463.155 209.839 464.055 210.559Q464.955 211.279 465.889 211.954Q466.823 212.629 467.789 213.258Q468.669 213.818 469.574 214.338Q470.478 214.858 471.405 215.337Q472.331 215.817 473.278 216.254Q474.225 216.692 475.191 217.088Q476.156 217.483 477.138 217.835Q478.12 218.188 479.117 218.496Q480.113 218.804 481.123 219.068Q482.132 219.332 483.152 219.551Q484.172 219.77 485.201 219.943Q486.23 220.116 487.265 220.244Q488.3 220.371 489.34 220.453Q490.38 220.535 491.423 220.57Q492.466 220.605 493.509 220.594Q494.552 220.583 495.594 220.526Q496.635 220.469 497.673 220.366Q498.712 220.262 499.744 220.113C512.778 217.669 523.873 211.443 531.455 200.344Q532.102 199.396 532.703 198.418Q533.303 197.44 533.854 196.433Q534.406 195.427 534.907 194.394Q535.409 193.362 535.859 192.306Q536.31 191.251 536.708 190.174Q537.106 189.098 537.451 188.003Q537.795 186.908 538.086 185.798Q538.377 184.688 538.613 183.565Q538.849 182.441 539.029 181.308Q539.21 180.175 539.335 179.034Q539.46 177.893 539.529 176.747Q539.598 175.601 539.61 174.454Q539.623 173.306 539.579 172.159Q539.535 171.012 539.436 169.869Q539.336 168.725 539.18 167.588Q539.024 166.451 538.813 165.323Q538.595 164.188 538.321 163.065Q538.047 161.941 537.719 160.833Q537.39 159.725 537.007 158.634Q536.624 157.543 536.188 156.473Q535.752 155.402 535.264 154.354Q534.776 153.307 534.236 152.284Q533.697 151.262 533.108 150.267Q532.519 149.272 531.882 148.308Q531.245 147.343 530.561 146.411Q529.877 145.479 529.148 144.582Q528.419 143.685 527.647 142.825Q526.874 141.965 526.061 141.144Q525.247 140.323 524.394 139.543Q523.541 138.763 522.65 138.026Q521.76 137.288 520.834 136.596Q519.909 135.904 518.95 135.258C508.999 128.598 498.155 126.814 486.405 127.774Z"/>
	<path fill="#850E0F" d="M651.537 674.647C664.707 673.427 677.69 675.591 689.511 681.589Q691.007 682.347 692.463 683.178Q693.92 684.008 695.333 684.91Q696.747 685.811 698.115 686.781Q699.483 687.751 700.801 688.787Q702.119 689.823 703.385 690.923Q704.651 692.023 705.861 693.184Q707.071 694.344 708.223 695.563Q709.374 696.782 710.464 698.056Q711.554 699.33 712.58 700.657Q713.606 701.983 714.566 703.358Q715.526 704.733 716.416 706.154Q717.307 707.575 718.127 709.037Q718.946 710.5 719.693 712.002Q720.44 713.503 721.112 715.039Q721.783 716.576 722.379 718.143Q722.974 719.711 723.492 721.306Q724 722.91 724.43 724.536Q724.859 726.162 725.209 727.808Q725.56 729.453 725.83 731.113Q726.1 732.774 726.29 734.445Q726.479 736.117 726.588 737.795Q726.696 739.474 726.723 741.156Q726.75 742.838 726.695 744.519Q726.641 746.2 726.505 747.877Q726.369 749.554 726.152 751.222Q725.935 752.89 725.637 754.545Q725.34 756.201 724.962 757.84Q724.585 759.48 724.128 761.099Q723.672 762.718 723.138 764.313Q722.604 765.908 721.993 767.475Q721.382 769.042 720.696 770.578Q720.01 772.114 719.25 773.615C710.667 790.21 695.523 802.165 677.757 807.703C674.456 808.731 669.384 810.291 666.138 808.598C664.887 809.564 663.825 810.042 662.273 810.254C647.572 812.261 629.144 805.19 617.591 796.395Q616.257 795.378 614.975 794.296Q613.693 793.214 612.465 792.07Q611.238 790.926 610.069 789.723Q608.9 788.519 607.792 787.26Q606.683 786 605.639 784.687Q604.594 783.375 603.616 782.012Q602.637 780.649 601.727 779.24Q600.817 777.83 599.978 776.378Q599.138 774.925 598.372 773.432Q597.605 771.94 596.914 770.411Q596.222 768.883 595.606 767.322Q594.991 765.761 594.453 764.172Q593.916 762.583 593.457 760.969Q592.999 759.355 592.621 757.72Q592.243 756.086 591.946 754.434Q591.649 752.783 591.434 751.119Q591.216 749.457 591.08 747.787Q590.944 746.117 590.891 744.442Q590.837 742.767 590.865 741.091Q590.894 739.416 591.005 737.744Q591.116 736.072 591.308 734.407Q591.501 732.742 591.776 731.089Q592.05 729.436 592.405 727.798Q592.76 726.16 593.195 724.542Q593.63 722.924 594.144 721.329Q594.658 719.734 595.25 718.166Q595.842 716.598 596.51 715.061Q597.178 713.524 597.921 712.022Q598.663 710.52 599.479 709.056Q600.294 707.592 601.181 706.17Q602.067 704.748 603.022 703.371Q603.977 701.994 604.999 700.666C616.577 685.693 632.925 677.088 651.537 674.647ZM651.951 695.925C638.611 698.658 627.617 704.798 619.969 716.373Q619.333 717.341 618.745 718.339Q618.157 719.338 617.618 720.363Q617.08 721.389 616.593 722.44Q616.106 723.491 615.67 724.565Q615.235 725.639 614.853 726.733Q614.471 727.826 614.144 728.937Q613.816 730.049 613.543 731.175Q613.27 732.301 613.053 733.438Q612.836 734.576 612.674 735.724Q612.513 736.871 612.409 738.025Q612.304 739.179 612.256 740.336Q612.208 741.494 612.217 742.652Q612.226 743.811 612.292 744.967Q612.358 746.124 612.48 747.276Q612.603 748.428 612.781 749.573Q612.96 750.717 613.195 751.852Q613.423 752.973 613.707 754.082Q613.99 755.19 614.328 756.283Q614.666 757.376 615.058 758.451Q615.45 759.526 615.895 760.58Q616.34 761.634 616.837 762.664Q617.334 763.695 617.881 764.7Q618.428 765.704 619.025 766.681Q619.621 767.657 620.266 768.602Q620.91 769.548 621.6 770.46Q622.291 771.372 623.026 772.249Q623.761 773.126 624.538 773.965Q625.316 774.804 626.134 775.604Q626.952 776.404 627.809 777.161Q628.666 777.919 629.56 778.634Q630.453 779.348 631.381 780.018Q632.309 780.687 633.269 781.309C641.775 786.833 654.449 790.481 664.565 788.377C665.512 788.18 666.252 787.774 666.96 787.117C670.612 788.321 675.458 786.033 678.686 784.401C690.296 778.533 699.16 769.175 703.202 756.703Q703.564 755.605 703.871 754.491Q704.177 753.376 704.428 752.248Q704.678 751.119 704.872 749.979Q705.066 748.84 705.203 747.692Q705.34 746.544 705.42 745.391Q705.499 744.238 705.521 743.082Q705.542 741.926 705.506 740.771Q705.47 739.615 705.377 738.463Q705.283 737.311 705.132 736.165Q704.981 735.019 704.773 733.882Q704.565 732.745 704.3 731.619Q704.036 730.494 703.715 729.383Q703.395 728.273 703.019 727.179Q702.644 726.086 702.214 725.013Q701.785 723.94 701.302 722.889Q700.819 721.839 700.285 720.814Q699.756 719.792 699.178 718.798Q698.601 717.804 697.975 716.839Q697.349 715.874 696.676 714.941Q696.004 714.008 695.287 713.109Q694.57 712.209 693.809 711.346Q693.049 710.484 692.247 709.659Q691.446 708.834 690.605 708.05Q689.764 707.265 688.885 706.523Q688.007 705.78 687.093 705.082Q686.18 704.383 685.233 703.73Q684.286 703.078 683.309 702.472Q682.331 701.866 681.325 701.309Q680.319 700.751 679.287 700.244Q678.255 699.737 677.199 699.28Q676.144 698.824 675.067 698.42Q673.99 698.016 672.895 697.665Q670.361 696.89 667.759 696.391Q665.157 695.891 662.516 695.671Q659.876 695.452 657.227 695.516Q654.578 695.579 651.951 695.925Z"/>
	<path fill="#850E0F" d="M757 881.765L757 918.73C741.16 938.961 724.262 958.366 708.436 978.636C652.202 1050.66 576.424 1157.75 588.127 1254.71C592.155 1288.08 610.883 1329.23 637.775 1350.31C662.354 1369.58 700.388 1373.13 730.661 1373.57C737.741 1373.67 745.066 1373.97 752.101 1373.09C753.885 1372.86 755.563 1372.68 757 1371.5L757 1389.92L757 1406.41L757 1430.65C756.572 1431.16 756.315 1431.47 755.719 1431.79C752.062 1433.74 745.36 1434.03 741.269 1434.76C736.266 1435.65 731.277 1436.96 726.231 1437.55C720.134 1438.27 713.661 1437.89 707.525 1437.87C699.966 1437.85 692.14 1438.22 684.611 1437.59C674.024 1436.71 662.493 1433.71 652.186 1431.04C616.282 1421.73 575.108 1400.58 555.777 1367.53C547.558 1353.48 541.242 1334.56 539.54 1318.3C538.812 1311.35 539.138 1304.07 539.155 1297.08C539.175 1288.83 539.135 1281.06 541.219 1273.02C543.757 1268.7 544.524 1255.78 545.678 1250.33C553.252 1214.55 567.277 1179.33 582.672 1146.28C616.758 1073.09 661.572 1004.72 709.991 940.258Q723.414 922.403 737.551 905.108C743.817 897.455 750.625 889.947 756.365 881.902L757 881.765ZM757 1406.41L757 1389.92C753.447 1393.44 723.843 1393.59 717.369 1393.55C679.244 1393.32 640.759 1382.93 613.391 1355.09C579.715 1320.83 566.953 1272.26 567.468 1225.43L567.545 1219.67C565.884 1231.05 562.894 1242.17 561.267 1253.58C555.944 1290.91 557.4 1335.63 580.82 1367.02C601.852 1395.21 640.018 1408.24 673.519 1413C696.755 1416.3 724.001 1416.89 746.902 1410.69C749.748 1409.92 753.621 1409.08 755.995 1407.33C756.37 1407.06 756.687 1406.75 757 1406.41Z"/>
</svg>
